<?xml version="1.0" encoding="utf-8"?>
<!-- Generator: Adobe Illustrator 22.1.0, SVG Export Plug-In . SVG Version: 6.00 Build 0)  -->
<svg version="1.1" id="Layer_1" xmlns="http://www.w3.org/2000/svg" xmlns:xlink="http://www.w3.org/1999/xlink" x="0px" y="0px"
	 viewBox="0 0 792 612" style="enable-background:new 0 0 792 612;" xml:space="preserve">
<style type="text/css">
	.st0{fill:#FFFFFF;stroke:#000000;stroke-miterlimit:10;}
	.st1{clip-path:url(#SVGID_2_);fill:none;stroke:#000000;stroke-width:3;stroke-miterlimit:10;}
	.st2{clip-path:url(#SVGID_4_);fill:#FCB614;}
	.st3{clip-path:url(#SVGID_6_);fill:none;stroke:#000000;stroke-width:2;stroke-miterlimit:10;}
	.st4{clip-path:url(#SVGID_8_);fill:#FCB614;}
	.st5{clip-path:url(#SVGID_10_);fill:none;stroke:#000000;stroke-width:2;stroke-miterlimit:10;}
	.st6{clip-path:url(#SVGID_12_);fill:#FCB614;}
	.st7{clip-path:url(#SVGID_14_);fill:none;stroke:#000000;stroke-width:2;stroke-miterlimit:10;}
	.st8{clip-path:url(#SVGID_16_);fill:#FCB614;}
	.st9{clip-path:url(#SVGID_18_);fill:none;stroke:#000000;stroke-width:2;stroke-miterlimit:10;}
	.st10{clip-path:url(#SVGID_20_);fill:#656565;}
	.st11{clip-path:url(#SVGID_22_);fill:#656565;}
	.st12{clip-path:url(#SVGID_24_);fill:#656565;}
	.st13{clip-path:url(#SVGID_26_);fill:#030202;}
	.st14{clip-path:url(#SVGID_28_);fill:#030202;}
	.st15{clip-path:url(#SVGID_30_);fill:none;stroke:#FBB116;stroke-miterlimit:10;}
	.st16{clip-path:url(#SVGID_32_);fill:#282828;}
	.st17{clip-path:url(#SVGID_34_);fill:#FFFFFF;}
	.st18{clip-path:url(#SVGID_36_);fill:#FFFFFF;}
	.st19{clip-path:url(#SVGID_38_);fill:#FFFFFF;}
</style>
<rect x="-706.9" y="-1048.3" class="st0" width="849.8" height="849.8"/>
<g>
	<g>
		<g>
			<defs>
				<rect id="SVGID_1_" x="-1164.9" y="-1195.2" width="1754.9" height="1255.6"/>
			</defs>
			<clipPath id="SVGID_2_">
				<use xlink:href="#SVGID_1_"  style="overflow:visible;"/>
			</clipPath>
			<path class="st1" d="M-32.1-932.2l-96.1,232l-4.2,0.4l68-232.9l-119.2-1.8l-208.6-3l0,0l-92.1-1.5c0,0-7.5,17.7-8.2,19l0.2-19.3
				l-142.6-2.1l26.5,251.3l-29.6,147.5l133.3-15.6l28.4-129.8l45.8-89.5l-13.5,57.1c-8.6,37.1-13.7,61-15,72.9
				c-1.8,15.2,0.6,29.3,7.5,42.3c7.5,14.2,20.6,24.6,39.3,31.2c10.9,3.9,23.3,5.7,36.7,5.7c6.2,0,12.8-0.4,19.8-1.2
				c18.4-2.3,35.4-7.2,50.6-14.5c10.7-5.3,20.4-11.9,29.2-19.5l-5.3,19.3l110-13l204.7-24l65.6-309L-32.1-932.2z"/>
		</g>
	</g>
	<g>
		<g>
			<defs>
				<rect id="SVGID_3_" x="-1164.9" y="-1195.2" width="1754.9" height="1255.6"/>
			</defs>
			<clipPath id="SVGID_4_">
				<use xlink:href="#SVGID_3_"  style="overflow:visible;"/>
			</clipPath>
			<path class="st2" d="M-386.3-919.1L-499-699.2l-25.5,116.7l-83,9.8l24.1-120.3l-24.5-229.5l90.8,1.5c-1.1,71.4-3.3,118-6.7,141.6
				c13.1-37.6,31.5-84.4,55.6-140.7L-386.3-919.1z"/>
		</g>
	</g>
	<g>
		<g>
			<defs>
				<rect id="SVGID_5_" x="-1164.9" y="-1195.2" width="1754.9" height="1255.6"/>
			</defs>
			<clipPath id="SVGID_6_">
				<use xlink:href="#SVGID_5_"  style="overflow:visible;"/>
			</clipPath>
			<path class="st3" d="M-386.3-919.1L-499-699.2l-25.5,116.7l-83,9.8l24.1-120.3l-24.5-229.5l90.8,1.5c-1.1,71.4-3.3,118-6.7,141.6
				c13.1-37.6,31.5-84.4,55.6-140.7L-386.3-919.1z"/>
		</g>
	</g>
	<g>
		<g>
			<defs>
				<rect id="SVGID_7_" x="-1164.9" y="-1195.2" width="1754.9" height="1255.6"/>
			</defs>
			<clipPath id="SVGID_8_">
				<use xlink:href="#SVGID_7_"  style="overflow:visible;"/>
			</clipPath>
			<path class="st4" d="M-192.7-916.2l-56.5,207.8c-6.2,22.3-11,38.2-14.8,47.2c-3.8,9-10.2,18.7-19.5,28.7
				c-9.3,10.1-20.1,18.3-32.6,24.4c-12.6,6.2-26.5,10.3-42.3,12.1c-17.5,2.1-32.6,1-45-3.3c-12.4-4.4-21.2-11-25.9-19.9
				c-4.8-9-6.7-19-5.3-29.9c1.3-10.9,6.2-34.3,14.7-70.6l46.8-199.4l82.2,1.2l-61,241.7c-3.3,13.3-4.8,21.7-4.2,25.2
				c0.5,3.5,2.9,5.1,7,4.7c4.8-0.4,8.4-2.9,10.9-7c2.4-4.1,5.6-13.7,9.6-29l60.5-235.5L-192.7-916.2z"/>
		</g>
	</g>
	<g>
		<g>
			<defs>
				<rect id="SVGID_9_" x="-1164.9" y="-1195.2" width="1754.9" height="1255.6"/>
			</defs>
			<clipPath id="SVGID_10_">
				<use xlink:href="#SVGID_9_"  style="overflow:visible;"/>
			</clipPath>
			<path class="st5" d="M-192.7-916.2l-56.5,207.8c-6.2,22.3-11,38.2-14.8,47.2c-3.8,9-10.2,18.7-19.5,28.7
				c-9.3,10.1-20.1,18.3-32.6,24.4c-12.6,6.2-26.5,10.3-42.3,12.1c-17.5,2.1-32.6,1-45-3.3c-12.4-4.4-21.2-11-25.9-19.9
				c-4.8-9-6.7-19-5.3-29.9c1.3-10.9,6.2-34.3,14.7-70.6l46.8-199.4l82.2,1.2l-61,241.7c-3.3,13.3-4.8,21.7-4.2,25.2
				c0.5,3.5,2.9,5.1,7,4.7c4.8-0.4,8.4-2.9,10.9-7c2.4-4.1,5.6-13.7,9.6-29l60.5-235.5L-192.7-916.2z"/>
		</g>
	</g>
	<g>
		<g>
			<defs>
				<rect id="SVGID_11_" x="-1164.9" y="-1195.2" width="1754.9" height="1255.6"/>
			</defs>
			<clipPath id="SVGID_12_">
				<use xlink:href="#SVGID_11_"  style="overflow:visible;"/>
			</clipPath>
			<polygon class="st6" points="-95.8,-914.7 -164.9,-678.5 -125.8,-682.1 -142.1,-627.3 -248.2,-615.1 -164.7,-915.8 			"/>
		</g>
	</g>
	<g>
		<g>
			<defs>
				<rect id="SVGID_13_" x="-1164.9" y="-1195.2" width="1754.9" height="1255.6"/>
			</defs>
			<clipPath id="SVGID_14_">
				<use xlink:href="#SVGID_13_"  style="overflow:visible;"/>
			</clipPath>
			<polygon class="st7" points="-95.8,-914.7 -164.9,-678.5 -125.8,-682.1 -142.1,-627.3 -248.2,-615.1 -164.7,-915.8 			"/>
		</g>
	</g>
	<g>
		<g>
			<defs>
				<rect id="SVGID_15_" x="-1164.9" y="-1195.2" width="1754.9" height="1255.6"/>
			</defs>
			<clipPath id="SVGID_16_">
				<use xlink:href="#SVGID_15_"  style="overflow:visible;"/>
			</clipPath>
			<path class="st8" d="M70.1-912.5L13.7-645.8l-57,6.8l12-46.6l-20.9,2.1l-18.7,47.8l-62.7,7.4l118.3-285.1L70.1-912.5z
				 M-17.9-732.8c6.9-30.5,16.1-69.1,28.1-115.9c-23,54.2-39.3,93.1-48.2,117.3L-17.9-732.8z"/>
		</g>
	</g>
	<g>
		<g>
			<defs>
				<rect id="SVGID_17_" x="-1164.9" y="-1195.2" width="1754.9" height="1255.6"/>
			</defs>
			<clipPath id="SVGID_18_">
				<use xlink:href="#SVGID_17_"  style="overflow:visible;"/>
			</clipPath>
			<path class="st9" d="M70.1-912.5L13.7-645.8l-57,6.8l12-46.6l-20.9,2.1l-18.7,47.8l-62.7,7.4l118.3-285.1L70.1-912.5z
				 M-17.9-732.8c6.9-30.5,16.1-69.1,28.1-115.9c-23,54.2-39.3,93.1-48.2,117.3L-17.9-732.8z"/>
		</g>
	</g>
	<g>
		<g>
			<defs>
				<rect id="SVGID_19_" x="-1164.9" y="-1195.2" width="1754.9" height="1255.6"/>
			</defs>
			<clipPath id="SVGID_20_">
				<use xlink:href="#SVGID_19_"  style="overflow:visible;"/>
			</clipPath>
			<polyline class="st10" points="136.2,-370.9 136.3,-371 136.2,-370.9 			"/>
		</g>
	</g>
	<g>
		<g>
			<defs>
				<rect id="SVGID_21_" x="-1164.9" y="-1195.2" width="1754.9" height="1255.6"/>
			</defs>
			<clipPath id="SVGID_22_">
				<use xlink:href="#SVGID_21_"  style="overflow:visible;"/>
			</clipPath>
			<path class="st11" d="M135.2-373.9c0.2,1,0.6,1.8,0.8,2.9l0.2-0.2c-0.6-0.6-1.6-1.2-2.2-1.8C134.6-373.1,135.1-373.6,135.2-373.9
				"/>
		</g>
	</g>
	<g>
		<g>
			<defs>
				<rect id="SVGID_23_" x="-1164.9" y="-1195.2" width="1754.9" height="1255.6"/>
			</defs>
			<clipPath id="SVGID_24_">
				<use xlink:href="#SVGID_23_"  style="overflow:visible;"/>
			</clipPath>
			<path class="st12" d="M134.1-373c-0.8-0.4-1.6-1-2.4-1.5c0.6-0.6,1.3-1,1.9-1.7c0.6,0.6,1.1,1.5,1.8,2.1
				C135.1-373.6,134.6-373.1,134.1-373"/>
		</g>
	</g>
	<g>
		<g>
			<defs>
				<rect id="SVGID_25_" x="-1164.9" y="-1195.2" width="1754.9" height="1255.6"/>
			</defs>
			<clipPath id="SVGID_26_">
				<use xlink:href="#SVGID_25_"  style="overflow:visible;"/>
			</clipPath>
			<path class="st13" d="M85.2-503.6c-17.3-25.2-35.3-49-63.6-65.5c0-7.4-4.8-13.1-6.7-15.4c-2.9-3.5-5.6-7.2-8.4-11.3
				c-2.7-3.9-5.6-7.8-8.8-11.6c-15.5-19.3-35.4-33-58.9-40.9c-21.2-7-43.6-10.4-68.5-10.4c-8.8,0-18.2,0.4-27.6,1.5
				c-3.2,0.2-5.9,0.4-8.8,0.4c-3.2,0-6.2-0.2-9.3-0.6c-13.3-1.7-26.5-2.4-39.6-2.4c-21.5,0-43,2.3-64,6.5c-1.6,0.4-3.2,0.4-4.5,0.4
				c-0.8,0-1.8,0-2.9-0.2c-16.6-2.7-32.1-3.9-47.2-3.9c-18.8,0-37,2.1-54.3,5.9c-25.9,5.9-49,16-70.1,30.5l-18.7,12.7l12.4,7.4
				l-134.4,42.7l24.4,16.9c1.1,0.8,2.2,1.7,3.3,2.3c2.2,1.5,4,2.7,5.8,3.9C-505.8-496-465.3-448.9-442-391
				c11.3,27.9,24.4,55.8,40.5,85.7c21.2,39.8,45.5,67.3,75.8,86.8c0.2,0.2,0.5,0.2,0.5,0.4c2.2,1.7,7.5,5.7,15.8,5.7
				c1.6,0,3.3-0.2,4.8-0.4l17.1-3.5l-5.3-15.6c-1.8-5.1-1.1-9.5,1.9-14.2c5.8-8.8,13.1-16,22.2-21.6c4.6-2.9,8.8-4.1,13.3-4.1
				c2.2,0,4.6,0.4,6.7,1l-16.6,2.4l7.8,17.2c3.3,7.2,9.7,9.8,12.2,10.9h0.2c19.5,9.7,39.9,14.5,60.5,14.3c12.2,0,24.9-1.7,37.2-5.1
				c43.2-11.6,75.3-36.7,101-59.5c2.2-1.8,6.7-7.2,4.2-15.4l-3.2-13.1l-8,1c5.1-10.3,9.3-21,12.4-32.4l-15.3-9.2
				c22.2-6.5,40.5-16.9,56.5-31.4c6.4-5.9,12.2-12.4,17.7-18.4c7-8,13.7-15.4,21.5-21.3c4.8-3.6,8.8-8.8,11.3-14.8
				c3.2-7.4,9.7-13.3,17.5-20.1l0.5-0.4c1.6-1.5,3.2-2.9,4.6-4.4c2.7-2.3,5.1-4.5,7.5-6.5C90.3-483.5,91.8-493.9,85.2-503.6
				 M-423.5-483.5c-18.7-23.2-41-43.5-66.7-60.5c25.1-8.6,49.6-15.4,75.2-15.4c2.2,0,4.6,0,6.9,0.2c7.5,0.4,14.8,1.8,21.9,4.1
				c-5.9,3-11.3,7.2-15.3,12.4c-9.1,10.9-12.4,25.2-9.7,41.5c2.7,15.8,9.3,31.6,20.9,47.8c2.2,3,4.5,6.3,6.9,9.5
				C-398.3-455.2-411.4-468.4-423.5-483.5 M-273-592.6c-2.7,0-5.6-0.4-8.8-1c-11.3-2.3-21.7-7.6-30.3-12.4
				c-8.2-4.5-16.9-8.2-25.7-11c2.9,0,5.6-0.2,8.2-0.2c20.1,0,35.9,2.7,49.8,8.6c9.6,3.9,15,8,18.2,13.1
				C-265-593.5-268.7-592.6-273-592.6 M-227.5-530.3c-7-0.4-13.1-1.5-18.7-3c6.9-3.3,14.7-5.3,23-6.3
				C-225-537.2-226.5-534.2-227.5-530.3 M-74.4-391.6c-1.8,2.7-3.5,5.1-5.8,8.2c-1.1,1.7-2.2,3-3.5,5l-23,32l21.1-5
				c-19.5,12.4-37.2,21-55.4,26.4c-3.8-4.5-6.4-10.1-8.6-18.3c-1.6-5.1-1.8-10.9-2.2-17c-0.5-5.1-0.6-10.4-1.8-15.8
				c-1.1-6.5-4-21.9-17.1-32.9c12.2-14.2,33.5-26.9,56-26.9c7.3,0,14.2,1.5,20.9,3.9c7.5,3,14.7,6.5,22.4,10.3
				c2.7,1.5,5.6,2.7,8.4,4.1C-64.5-408.8-68.3-400.4-74.4-391.6 M-56.8-533c9.7-3.5,18.7-5.3,27.3-5.9c2.7-0.2,4.8-0.4,6.7-0.4
				c2.4,0,4.5,0.2,5.9,0.6l-6.7,17.2l-19.8-1C-47.7-526.6-52.2-530.1-56.8-533 M17.2-466.3c-7,10.3-18.4,15.8-32.1,15.8
				c-5.8,0-11.8-1-17.9-2.9c-3.2-1-6.2-2.3-9.6-3.9l2.2,0.8l7.5-7.2l10.7-10.3l-8.4-10.1c-2.7-3.3-5.8-6.3-8.8-9.5l21.7,0.4
				l-10.7-12.5l13.7-9.2c0.8,0.4,1.8,1,2.4,1.5c5.3,3,9.9,6.2,14.2,9l5.3,12.7c1.1,2.4,1.9,5,3.2,7.4c2.4,5.7,4.6,11,7,16.9
				C17.7-466.7,17.4-466.4,17.2-466.3"/>
		</g>
	</g>
	<g>
		<g>
			<defs>
				<rect id="SVGID_27_" x="-1164.9" y="-1195.2" width="1754.9" height="1255.6"/>
			</defs>
			<clipPath id="SVGID_28_">
				<use xlink:href="#SVGID_27_"  style="overflow:visible;"/>
			</clipPath>
			<path class="st14" d="M-56.4-352c-5.6,19.6-14.2,37.7-27.5,54.8c9.6-1.2,17.7-2.3,25.9-3.3c0.2,0.6,0.5,1.2,0.2,1.5
				c-27.5,24.4-57,45.9-94.4,56c-29.9,8-58.7,5.3-85.9-8.4c-1.8-0.8-4-1.2-4.8-3.5c6.4-1,12.6-1,18.7-3c6.7-2.3,7.8-5.7,3.2-10.7
				c-15.5-15.8-35.6-22.2-56.2-9.7c-11,6.8-20.1,15.6-27,26.3c-5.3,8.2-6.7,17-3.5,26.3c-4.2,0.8-6.2-1.8-8.4-3.3
				c-32.4-20.5-53.6-49.2-70.7-81.2c-14.7-27.5-28.1-55.6-39.9-84.4c-25.5-63.2-70.2-112.4-129.3-150.8c-2.7-1.7-5.1-3.5-8.6-5.9
				c45.8-14.5,90.8-29,137.1-43.5c-7.3-4.4-13.7-8-20.9-12.4c19.9-13.6,41.2-22.5,64.5-28.1c31.5-7.4,63.2-7,95-2.1
				c4.6,0.6,8.8,0.6,13.3-0.4c32.4-6.8,65.1-7.8,98.2-3.9c7.3,0.8,14.4,0.8,21.9,0.2c30.3-2.9,60-1.2,89.1,8.2
				c21.2,7,38.1,19,51.6,35.6c5.9,7.6,11.3,15.6,17.3,23.2C7-569,8.1-565.1-1-562.4C33-548.3,53-521.8,71.6-494.6
				c2.7,3.9,1.9,6.2-1.3,8.8c-4.5,3.5-8.4,7.6-12.6,11.3c-8.6,7.6-17.3,15.2-21.7,25.8c-1.3,3.3-3.8,6.3-6.4,8.6
				c-15.8,11.6-26.2,27.9-40.4,40.9c-16.4,15-35.9,24.9-59.6,30.3c3.8-5.1,6.9-9.2,9.7-13.6c7.5-11.3,12.8-23.4,14.4-36.7
				c0.5-3.9-0.6-6.2-4.5-7.8c-12.2-5.7-24.1-12.1-36.6-17c-41.5-16.6-87,9.7-103.5,38.2c-1.1,2.1-1.6,3.3,1.3,4.4
				c13.9,5.6,18.2,16.9,20.4,29.3c1.9,11.3,1.1,23,4.2,34.3c2.7,9.7,6.7,18.7,13.9,26.3c3.8,3.9,7.3,4.7,12.6,3
				c28.4-8.4,53.3-22.5,76.9-39.2C-59.9-349.6-58.1-350.8-56.4-352"/>
		</g>
	</g>
	<g>
		<g>
			<defs>
				<rect id="SVGID_29_" x="-1164.9" y="-1195.2" width="1754.9" height="1255.6"/>
			</defs>
			<clipPath id="SVGID_30_">
				<use xlink:href="#SVGID_29_"  style="overflow:visible;"/>
			</clipPath>
			<path class="st15" d="M-56.4-352c-5.6,19.6-14.2,37.7-27.5,54.8c9.6-1.2,17.7-2.3,25.9-3.3c0.2,0.6,0.5,1.2,0.2,1.5
				c-27.5,24.4-57,45.9-94.4,56c-29.9,8-58.7,5.3-85.9-8.4c-1.8-0.8-4-1.2-4.8-3.5c6.4-1,12.6-1,18.7-3c6.7-2.3,7.8-5.7,3.2-10.7
				c-15.5-15.8-35.6-22.2-56.2-9.7c-11,6.8-20.1,15.6-27,26.3c-5.3,8.2-6.7,17-3.5,26.3c-4.2,0.8-6.2-1.8-8.4-3.3
				c-32.4-20.5-53.6-49.2-70.7-81.2c-14.7-27.5-28.1-55.6-39.9-84.4c-25.5-63.2-70.2-112.4-129.3-150.8c-2.7-1.7-5.1-3.5-8.6-5.9
				c45.8-14.5,90.8-29,137.1-43.5c-7.3-4.4-13.7-8-20.9-12.4c19.9-13.6,41.2-22.5,64.5-28.1c31.5-7.4,63.2-7,95-2.1
				c4.6,0.6,8.8,0.6,13.3-0.4c32.4-6.8,65.1-7.8,98.2-3.9c7.3,0.8,14.4,0.8,21.9,0.2c30.3-2.9,60-1.2,89.1,8.2
				c21.2,7,38.1,19,51.6,35.6c5.9,7.6,11.3,15.6,17.3,23.2C7-569,8.1-565.1-1-562.4C33-548.3,53-521.8,71.6-494.6
				c2.7,3.9,1.9,6.2-1.3,8.8c-4.5,3.5-8.4,7.6-12.6,11.3c-8.6,7.6-17.3,15.2-21.7,25.8c-1.3,3-3.8,6.3-6.4,8.6
				c-15.8,11.6-26.2,27.9-40.4,40.9c-16.4,15-35.9,24.9-59.6,30.3c3.8-5.1,6.9-9.2,9.7-13.6c7.5-11.3,12.8-23.4,14.4-36.7
				c0.5-3.9-0.6-6.2-4.5-7.8c-12.2-5.7-24.1-12.1-36.6-17c-41.5-16.6-87,9.7-103.5,38.2c-1.1,2.1-1.6,3.3,1.3,4.4
				c13.9,5.6,18.2,16.9,20.4,29.3c1.9,11.3,1.1,23,4.2,34.3c2.7,9.7,6.7,18.7,13.9,26.3c3.8,3.9,7.3,4.7,12.6,3
				c28.4-8.4,53.3-22.5,76.9-39.2C-59.9-349.6-58.1-350.8-56.4-352z"/>
		</g>
	</g>
	<g>
		<g>
			<defs>
				<rect id="SVGID_31_" x="-1164.9" y="-1195.2" width="1754.9" height="1255.6"/>
			</defs>
			<clipPath id="SVGID_32_">
				<use xlink:href="#SVGID_31_"  style="overflow:visible;"/>
			</clipPath>
			<path class="st16" d="M-395.6-586.6c-0.5-0.6-0.8-1-1.3-1.7c-2.4-3-4.6-6.2-7.3-9c-3.8-4.1-1.9-5.1,2.9-5.9
				c27.5-3.5,53.6,0,77.6,13.6c11,6.2,22.5,11.6,35.4,14.2c11.5,2.3,22.5,1.8,32.9-4.4c8-5,9.6-10.3,5.1-18.1
				c-5.8-10.1-15.5-16-26.2-20.5c-20.9-8.8-43-10.4-65.3-9.8c-28.9,1-56,7.8-81.3,20.7c-4.5,2.3-5.1,3.5-0.2,6.2
				c8.6,4.5,16.9,9.5,25.2,14.2c0.6,0.4,1.1,0.8,1.8,1c0.5,0.4,1.1,0.8,1.6,1.5h-0.2C-395.1-585.1-395.4-585.7-395.6-586.6
				 M-54-504.3c-1.1,0-2.7,0.2-3.5-0.2c-29-13.9-60-15.4-91.5-13.6c-1.9,0.2-4.6-1-5.6,2.3c12.4,1.2,24.9,2.1,36.7,5
				c28.4,6.5,53.3,18.3,71.8,40.2c-0.5,0.4-0.6,0.6-1.1,1c-2.4-0.8-4.6-1.8-7-2.7c-24.6-8.8-49.8-14.2-76.5-9.2
				c-23.8,4.4-42.8,16-57.6,34.3c4.6,1,7.8-2.4,12.6-1.2c-9.1,8-17.1,16.6-21.5,27.3c20.9-17.8,40.1-37.9,72.3-37.3
				c-7.3-4.7-15-3.5-22.5-3.9c6.2-2.9,12.4-3.5,19-3c22.5,1.2,42.5,9.8,62.3,19c8.4,3.9,16.4,8.6,25.2,11.3
				c28.1,8.8,54.6,1.5,68.5-19c3.2-4.5,4.2-8.8,1.9-13.9c-3.5-8-6.7-16-10.2-24.4c1.3,0.4,2.2,0.4,2.7,0.8c2.9,2.4,5.8,5.1,8.6,7.8
				c0.6,0.2,1.1,0.4,1.8,0.8c0-0.6-0.2-1.2-0.2-1.8c-7.8-16.6-22.5-27-38.5-36.5c-4.2-2.4-8.6-4.7-12.8-7.2
				c21.7,2.9,41.8,8.6,60,19.6c0.6,0.4,0.8,1.8,1.9,1c0.8-0.6,0-1.5-0.8-1.8C27.2-528,8.7-542-15.4-548.6
				c-5.9-1.7-12.4-1.5-18.8-0.8c-14.8,1.2-28.6,5.3-42.1,11c-5.8,2.4-12.2,4.4-17.5,8.8C-79.2-522.7-64.3-516.4-54-504.3L-54-504.3z
				 M-527.4-543.6c2.7,1.7,3.8,2.7,5.1,3.3c32.4,18.3,60.2,41.5,82.9,69.6c29.7,37,66.9,64.2,113.8,80.3c4.5,1.5,8.8,3.3,13.5,5
				c0-2.7-1.6-3-2.7-3.9c-25.9-19.3-47.4-42.3-65.3-68.1c-9.1-13-16-26.7-18.4-42.1c-4-24.6,9.6-41.2,36.4-44.1
				c5.6-0.6,11.3-1,19-1.8c-21.9-12.7-42.8-23.4-67.2-24.6C-451.6-571.9-488.8-558-527.4-543.6 M-190.4-628.1
				c-25.1-5.3-49.6-3.3-74.4,0c12.4,6.8,22.4,15.6,31.5,25.5c2.7,2.9,5.6,1,8.4,0c33.2-10.7,66.9-15.4,102.2-13.3
				c30.8,1.8,56.2,12.4,77.1,32.9c6.7,6.5,14.8,10.3,23.9,13c2.2,0.6,4.8,1.8,6.4,0c1.8-2.1-0.6-3.9-1.8-5.6
				c-18.2-26.9-44.1-44.4-77.8-50.9c-37.7-7.4-73.9-1.2-110,9c-2.9,0.8-5.8,2.7-10.2,1.5C-206.4-620.4-198.4-624.3-190.4-628.1
				 M-139-539.3c-1.1-0.4-2.2-1-3.3-1.5c-22.5-7-45.7-10.9-69.3-10.9c-17.5,0-35,3.3-50.3,11.6c-10.2,5.7-10.2,14.5-0.5,21
				c2.2,1.5,4.8,2.7,7.5,3.3c16.9,5,34.1,4.7,51.9,3.9c-0.6-1-0.8-1.7-1.1-1.7c-4.8-1.7-11.3-2.3-10.9-8.8
				c0.2-5.9,5.8-8.4,10.9-10.7c8.8-3.6,18.7-4.5,28.1-5.7C-163.6-539.9-151.5-538.1-139-539.3 M-96.3-281.2
				c-42.3,5-74.9-9.8-100.9-39.8c6.4,17.2,17.1,31,33.9,40.2c7.3,3.9,14.8,7.4,22.8,9.7c5.6,1.7,4.8,3.5,1.1,6.3
				c-4.6,3.9-9.9,7.2-14.8,10.9C-131.9-257.4-112.9-266.4-96.3-281.2 M-57.5-562.7c0-0.4,0-0.8,0-1.2c-4.5,0-8.8,0-13.3,0
				c-3.5,0-6.4-0.6-9.1-2.7c-14.8-10.9-31.9-17-50.6-19.6c-14.2-2.1-28.6-3-42.8,0c5.9,1,12.2,1.2,18.2,2.1
				c25.1,2.9,49.2,7.2,67.2,25.7c3.2,3.3,7.3,3.6,12,2.1C-69.9-558.8-63.7-560.9-57.5-562.7 M33.4-480.6l0.2-0.4h-0.5L33.4-480.6z"
				/>
		</g>
	</g>
	<g>
		<g>
			<defs>
				<rect id="SVGID_33_" x="-1164.9" y="-1195.2" width="1754.9" height="1255.6"/>
			</defs>
			<clipPath id="SVGID_34_">
				<use xlink:href="#SVGID_33_"  style="overflow:visible;"/>
			</clipPath>
			<path class="st17" d="M-159-577.8c2.2,2.3,2.9,3,3.5,3.6c8.4,6.3,16.9,12.7,25.5,18.7c9.9,7.2,22.4,7.4,34.1,0.2
				C-113.8-569.5-133.9-576.5-159-577.8"/>
		</g>
	</g>
	<g>
		<g>
			<defs>
				<rect id="SVGID_35_" x="-1164.9" y="-1195.2" width="1754.9" height="1255.6"/>
			</defs>
			<clipPath id="SVGID_36_">
				<use xlink:href="#SVGID_35_"  style="overflow:visible;"/>
			</clipPath>
			<path class="st18" d="M-77.9-326.4c-17.1,11.6-35.6,20.4-57.2,26.9c11,4.1,20.6,5.1,30.5,5.6c2.9,0.2,4.6-0.8,6.4-2.9
				C-89.4-305.4-82.7-315.3-77.9-326.4"/>
		</g>
	</g>
	<g>
		<g>
			<defs>
				<rect id="SVGID_37_" x="-1164.9" y="-1195.2" width="1754.9" height="1255.6"/>
			</defs>
			<clipPath id="SVGID_38_">
				<use xlink:href="#SVGID_37_"  style="overflow:visible;"/>
			</clipPath>
			<path class="st19" d="M-50.1-384.4c12.6-2.9,36.4-21.7,43.2-34.1c-9.9,2.1-19.8,1.8-29.5,0.4c-3.3-0.4-4,1-4.2,3.5
				C-42-404.4-45.3-394.4-50.1-384.4"/>
		</g>
	</g>
</g>
</svg>
