<?xml version="1.0" encoding="utf-8"?>
<!-- Generator: Adobe Illustrator 22.1.0, SVG Export Plug-In . SVG Version: 6.00 Build 0)  -->
<svg version="1.1" id="Layer_1" xmlns="http://www.w3.org/2000/svg" xmlns:xlink="http://www.w3.org/1999/xlink" x="0px" y="0px"
	 viewBox="0 0 7161.2 5533.7" style="enable-background:new 0 0 7161.2 5533.7;" xml:space="preserve">
<style type="text/css">
	.st0{clip-path:url(#SVGID_2_);fill:none;stroke:#000000;stroke-width:3;stroke-miterlimit:10;}
	.st1{clip-path:url(#SVGID_4_);fill:#FCB614;}
	.st2{clip-path:url(#SVGID_6_);fill:none;stroke:#000000;stroke-width:2;stroke-miterlimit:10;}
	.st3{clip-path:url(#SVGID_8_);fill:#FCB614;}
	.st4{clip-path:url(#SVGID_10_);fill:none;stroke:#000000;stroke-width:2;stroke-miterlimit:10;}
	.st5{clip-path:url(#SVGID_12_);fill:#FCB614;}
	.st6{clip-path:url(#SVGID_14_);fill:none;stroke:#000000;stroke-width:2;stroke-miterlimit:10;}
	.st7{clip-path:url(#SVGID_16_);fill:#FCB614;}
	.st8{clip-path:url(#SVGID_18_);fill:none;stroke:#000000;stroke-width:2;stroke-miterlimit:10;}
	.st9{clip-path:url(#SVGID_20_);fill:#656565;}
	.st10{clip-path:url(#SVGID_22_);fill:#656565;}
	.st11{clip-path:url(#SVGID_24_);fill:#656565;}
	.st12{clip-path:url(#SVGID_26_);fill:#030202;}
	.st13{clip-path:url(#SVGID_28_);fill:#030202;}
	.st14{clip-path:url(#SVGID_30_);fill:none;stroke:#FBB116;stroke-miterlimit:10;}
	.st15{clip-path:url(#SVGID_32_);fill:#282828;}
	.st16{clip-path:url(#SVGID_34_);fill:#FFFFFF;}
	.st17{clip-path:url(#SVGID_36_);fill:#FFFFFF;}
	.st18{clip-path:url(#SVGID_38_);fill:#FFFFFF;}
</style>
<g>
	<g>
		<g>
			<defs>
				<rect id="SVGID_1_" x="-2419.8" y="-1535" width="12304.2" height="8804"/>
			</defs>
			<clipPath id="SVGID_2_">
				<use xlink:href="#SVGID_1_"  style="overflow:visible;"/>
			</clipPath>
			<path class="st0" d="M5523.2,309.4l-674,1626.8l-29.7,2.5L5296.3,306l-835.5-12.7L2997.9,272l0,0l-646-10.2
				c0,0-52.7,124.1-57.8,133.4l1.7-135.1l-999.6-14.4l186.1,1762L1275,3042.1l935-109.6l198.9-910.3l321.3-627.3l-94.3,400.3
				c-60.3,260.1-96,427.5-105.4,510.8c-12.7,106.2,4.2,205.7,52.7,296.6c52.7,99.4,144.5,172.5,275.4,218.4
				c76.5,27.2,163.2,39.9,257.5,39.9c43.3,0,90.1-2.5,138.5-8.5c129.2-16.1,248.2-50.1,354.4-102c74.8-37.4,142.8-83.3,204.8-136.8
				l-37.4,135.1l770.9-90.9L5983,2489.6L6442.9,323L5523.2,309.4z"/>
		</g>
	</g>
	<g>
		<g>
			<defs>
				<rect id="SVGID_3_" x="-2419.8" y="-1535" width="12304.2" height="8804"/>
			</defs>
			<clipPath id="SVGID_4_">
				<use xlink:href="#SVGID_3_"  style="overflow:visible;"/>
			</clipPath>
			<path class="st1" d="M3039.6,401.2l-790.5,1541.9l-178.5,818.5l-582.2,68.8l169.1-843.2l-171.7-1609l636.6,10.2
				c-7.6,500.6-22.9,827-46.7,992.8c91.8-263.5,221-591.6,390.1-986.8L3039.6,401.2z"/>
		</g>
	</g>
	<g>
		<g>
			<defs>
				<rect id="SVGID_5_" x="-2419.8" y="-1535" width="12304.2" height="8804"/>
			</defs>
			<clipPath id="SVGID_6_">
				<use xlink:href="#SVGID_5_"  style="overflow:visible;"/>
			</clipPath>
			<path class="st2" d="M3039.6,401.2l-790.5,1541.9l-178.5,818.5l-582.2,68.8l169.1-843.2l-171.7-1609l636.6,10.2
				c-7.6,500.6-22.9,827-46.7,992.8c91.8-263.5,221-591.6,390.1-986.8L3039.6,401.2z"/>
		</g>
	</g>
	<g>
		<g>
			<defs>
				<rect id="SVGID_7_" x="-2419.8" y="-1535" width="12304.2" height="8804"/>
			</defs>
			<clipPath id="SVGID_8_">
				<use xlink:href="#SVGID_7_"  style="overflow:visible;"/>
			</clipPath>
			<path class="st3" d="M4397,421.6l-396.1,1456.9c-43.3,156.4-77.3,267.7-103.7,330.6c-26.3,62.9-71.4,130.9-136.8,201.4
				c-65.4,70.5-141.1,128.3-228.6,170.8c-88.4,43.3-186.1,72.2-296.6,85c-122.4,14.4-228.6,6.8-315.3-22.9
				c-86.7-30.6-148.7-77.3-181.9-139.4c-34-62.9-46.7-133.4-37.4-209.9c9.3-76.5,43.3-240.5,102.8-494.7l328.1-1398.2l576.3,8.5
				l-427.5,1694.8c-22.9,93.5-34,152.1-29.7,176.8c3.4,24.6,20.4,35.7,49.3,33.1c34-2.6,58.6-20.4,76.5-49.3
				c17-28.9,39.1-96,67.1-203.1l424.1-1651.5L4397,421.6z"/>
		</g>
	</g>
	<g>
		<g>
			<defs>
				<rect id="SVGID_9_" x="-2419.8" y="-1535" width="12304.2" height="8804"/>
			</defs>
			<clipPath id="SVGID_10_">
				<use xlink:href="#SVGID_9_"  style="overflow:visible;"/>
			</clipPath>
			<path class="st4" d="M4397,421.6l-396.1,1456.9c-43.3,156.4-77.3,267.7-103.7,330.6c-26.3,62.9-71.4,130.9-136.8,201.4
				c-65.4,70.5-141.1,128.3-228.6,170.8c-88.4,43.3-186.1,72.2-296.6,85c-122.4,14.4-228.6,6.8-315.3-22.9
				c-86.7-30.6-148.7-77.3-181.9-139.4c-34-62.9-46.7-133.4-37.4-209.9c9.3-76.5,43.3-240.5,102.8-494.7l328.1-1398.2l576.3,8.5
				l-427.5,1694.8c-22.9,93.5-34,152.1-29.7,176.8c3.4,24.6,20.4,35.7,49.3,33.1c34-2.6,58.6-20.4,76.5-49.3
				c17-28.9,39.1-96,67.1-203.1l424.1-1651.5L4397,421.6z"/>
		</g>
	</g>
	<g>
		<g>
			<defs>
				<rect id="SVGID_11_" x="-2419.8" y="-1535" width="12304.2" height="8804"/>
			</defs>
			<clipPath id="SVGID_12_">
				<use xlink:href="#SVGID_11_"  style="overflow:visible;"/>
			</clipPath>
			<polygon class="st5" points="5076.1,431.8 4591.6,2088.4 4866.2,2062.9 4751.4,2447.1 4007.7,2533 4593.3,424.2 			"/>
		</g>
	</g>
	<g>
		<g>
			<defs>
				<rect id="SVGID_13_" x="-2419.8" y="-1535" width="12304.2" height="8804"/>
			</defs>
			<clipPath id="SVGID_14_">
				<use xlink:href="#SVGID_13_"  style="overflow:visible;"/>
			</clipPath>
			<polygon class="st6" points="5076.1,431.8 4591.6,2088.4 4866.2,2062.9 4751.4,2447.1 4007.7,2533 4593.3,424.2 			"/>
		</g>
	</g>
	<g>
		<g>
			<defs>
				<rect id="SVGID_15_" x="-2419.8" y="-1535" width="12304.2" height="8804"/>
			</defs>
			<clipPath id="SVGID_16_">
				<use xlink:href="#SVGID_15_"  style="overflow:visible;"/>
			</clipPath>
			<path class="st7" d="M6239.7,447.1l-396.1,1869.9l-399.5,47.6l84.1-326.4l-146.2,14.4l-130.9,334.9l-439.4,51.8l829.6-1999.1
				L6239.7,447.1z M5622.7,1707.6c48.4-214.2,113-484.5,197.2-812.6c-161.5,379.9-275.4,652.8-338.3,822.8L5622.7,1707.6z"/>
		</g>
	</g>
	<g>
		<g>
			<defs>
				<rect id="SVGID_17_" x="-2419.8" y="-1535" width="12304.2" height="8804"/>
			</defs>
			<clipPath id="SVGID_18_">
				<use xlink:href="#SVGID_17_"  style="overflow:visible;"/>
			</clipPath>
			<path class="st8" d="M6239.7,447.1l-396.1,1869.9l-399.5,47.6l84.1-326.4l-146.2,14.4l-130.9,334.9l-439.4,51.8l829.6-1999.1
				L6239.7,447.1z M5622.7,1707.6c48.4-214.2,113-484.5,197.2-812.6c-161.5,379.9-275.4,652.8-338.3,822.8L5622.7,1707.6z"/>
		</g>
	</g>
	<g>
		<g>
			<defs>
				<rect id="SVGID_19_" x="-2419.8" y="-1535" width="12304.2" height="8804"/>
			</defs>
			<clipPath id="SVGID_20_">
				<use xlink:href="#SVGID_19_"  style="overflow:visible;"/>
			</clipPath>
			<polyline class="st9" points="6703,4244.8 6703.8,4244 6703,4244.8 			"/>
		</g>
	</g>
	<g>
		<g>
			<defs>
				<rect id="SVGID_21_" x="-2419.8" y="-1535" width="12304.2" height="8804"/>
			</defs>
			<clipPath id="SVGID_22_">
				<use xlink:href="#SVGID_21_"  style="overflow:visible;"/>
			</clipPath>
			<path class="st10" d="M6696.2,4223.6c1.7,6.8,4.2,12.7,5.9,20.4l1.7-1.7c-4.2-4.2-11-8.5-15.3-12.7
				C6691.9,4229.5,6695.3,4226.1,6696.2,4223.6"/>
		</g>
	</g>
	<g>
		<g>
			<defs>
				<rect id="SVGID_23_" x="-2419.8" y="-1535" width="12304.2" height="8804"/>
			</defs>
			<clipPath id="SVGID_24_">
				<use xlink:href="#SVGID_23_"  style="overflow:visible;"/>
			</clipPath>
			<path class="st11" d="M6688.5,4230.4c-5.9-2.6-11-6.8-17-10.2c4.2-4.2,9.3-6.8,13.6-11.9c4.2,4.2,7.6,10.2,12.7,14.4
				C6695.3,4226.1,6691.9,4229.5,6688.5,4230.4"/>
		</g>
	</g>
	<g>
		<g>
			<defs>
				<rect id="SVGID_25_" x="-2419.8" y="-1535" width="12304.2" height="8804"/>
			</defs>
			<clipPath id="SVGID_26_">
				<use xlink:href="#SVGID_25_"  style="overflow:visible;"/>
			</clipPath>
			<path class="st12" d="M6345.1,3314.1c-121.5-176.8-247.3-343.4-446.2-459c0-51.8-34-91.8-46.7-107.9
				c-20.4-24.6-39.1-50.1-58.6-79c-18.7-27.2-39.1-54.4-62-81.6c-108.8-135.1-248.2-231.2-413.1-286.4
				c-148.7-49.3-306-73.1-480.2-73.1c-62,0-127.5,2.6-193.8,10.2c-22.1,1.7-41.6,2.6-62,2.6c-22.1,0-43.3-1.7-65.4-4.2
				c-93.5-11.9-186.1-17-277.9-17c-150.4,0-301.7,16.1-448.8,45.9c-11,2.5-22.1,2.5-31.4,2.5c-5.9,0-12.7,0-20.4-1.7
				c-116.4-18.7-225.2-27.2-330.6-27.2c-131.7,0-259.2,14.4-380.8,41.6c-181.9,41.6-343.4,112.2-491.3,214.2l-130.9,89.2l86.7,51.8
				l-942.6,299.2l170.8,118.1c7.6,5.9,15.3,11.9,22.9,16.1c15.3,10.2,28,18.7,40.8,27.2c418.2,272,702.1,602.6,865.3,1008.1
				c79,195.5,170.8,391,283.9,600.9c148.7,278.8,318.7,471.7,531.2,608.6c1.7,1.7,3.4,1.7,3.4,2.5c15.3,11.9,52.7,39.9,110.5,39.9
				c11,0,22.9-1.7,34-2.5l119.8-24.6l-37.4-109.6c-12.7-35.7-7.6-66.3,13.6-99.4c40.8-62,91.8-112.2,155.5-151.3
				c32.3-20.4,62-28.9,93.5-28.9c15.3,0,32.3,2.5,46.7,6.8l-116.4,17l54.4,120.7c22.9,50.1,68,68.8,85.8,76.5h1.7
				c136.8,68,279.6,102,424.1,100.3c85.8,0,174.2-11.9,260.9-35.7c302.6-81.6,527.8-257.5,708-417.3c15.3-12.7,46.7-50.1,29.7-107.9
				l-22.1-91.8l-56.1,6.8c35.7-72.2,65.4-147,86.7-226.9l-107.1-64.6c155.5-45.9,283.9-118.1,396.1-220.1
				c45-41.6,85.8-86.7,124.1-129.2c49.3-56.1,96-107.9,150.4-149.6c34-25.5,62-62,79-103.7c22.1-51.8,68-93.5,122.4-141.1l3.4-2.5
				c11-10.2,22.1-20.4,32.3-30.6c18.7-16.1,35.7-31.4,52.7-45.9C6380.8,3455.2,6391.9,3382.1,6345.1,3314.1 M2778.6,3455.2
				c-130.9-162.3-287.3-305.1-467.5-424.1c175.9-60.3,347.6-107.9,527-107.9c15.3,0,32.3,0,48.4,1.7c52.7,2.5,103.7,12.7,153.8,28.9
				c-41.6,21.2-79,50.1-107.1,86.7c-63.7,76.5-86.7,176.8-68,290.7c18.7,110.5,65.4,221.8,146.2,334.9
				c15.3,21.2,31.4,44.2,48.4,66.3C2955.4,3654.1,2863.6,3561.4,2778.6,3455.2 M3833.5,2690.2c-18.7,0-39.1-2.5-62-6.8
				c-79-16.1-152.1-53.5-212.5-86.7c-57.8-31.4-118.1-57.8-180.2-77.3c20.4,0,39.1-1.7,57.8-1.7c141.1,0,251.6,18.7,349.3,60.3
				c67.1,27.2,105.4,56.1,127.5,91.8C3889.6,2684.3,3864.1,2690.2,3833.5,2690.2 M4153.1,3127.1c-49.3-2.5-91.8-10.2-130.9-21.2
				c48.4-22.9,102.8-37.4,161.5-44.2C4170.1,3078.7,4159.9,3099.9,4153.1,3127.1 M5226.6,4099.5c-12.7,18.7-24.6,35.7-40.8,57.8
				c-7.7,11.9-15.3,21.2-24.6,34.8l-161.5,224.4l147.9-34.8c-136.8,86.7-260.9,147-388.4,185.3c-26.3-31.4-45-70.5-60.3-128.3
				c-11-35.7-12.7-76.5-15.3-119c-3.4-35.7-4.2-73.1-12.7-110.5c-7.6-45.9-28-153.8-119.8-230.3c85.8-99.4,234.6-188.7,392.7-188.7
				c51,0,99.4,10.2,146.2,27.2c52.7,21.2,102.8,45.9,157.2,72.2c18.7,10.2,39.1,18.7,58.6,28.9
				C5295.4,3978.8,5269.1,4038.3,5226.6,4099.5 M5349.8,3108.4c68-24.6,130.9-37.4,191.2-41.6c18.7-1.7,34-2.5,46.7-2.5
				c17,0,31.4,1.7,41.6,4.2l-46.7,120.7l-138.5-6.8C5413.6,3153.4,5382.1,3128.8,5349.8,3108.4 M5868.3,3575.9
				c-49.3,72.2-129.2,110.5-225.2,110.5c-40.8,0-82.4-6.8-125.8-20.4c-22.1-6.8-43.3-16.1-67.1-27.2l15.3,5.9l52.7-50.1l74.8-72.2
				l-58.6-70.5c-18.7-22.9-40.8-44.2-62-66.3l152.1,2.5l-74.8-87.5l96-64.6c5.9,2.5,12.7,6.8,17,10.2c37.4,21.2,69.7,43.3,99.4,62.9
				l37.4,89.2c7.6,17,13.6,34.8,22.1,51.8c17,39.9,32.3,77.3,49.3,118.1C5871.7,3573.3,5870,3575,5868.3,3575.9"/>
		</g>
	</g>
	<g>
		<g>
			<defs>
				<rect id="SVGID_27_" x="-2419.8" y="-1535" width="12304.2" height="8804"/>
			</defs>
			<clipPath id="SVGID_28_">
				<use xlink:href="#SVGID_27_"  style="overflow:visible;"/>
			</clipPath>
			<path class="st13" d="M5352.4,4377.4c-39.1,137.7-99.4,264.3-192.9,384.2c67.1-8.5,124.1-16.1,181.9-22.9
				c1.7,4.2,3.4,8.5,1.7,10.2c-192.9,170.8-399.5,322.1-662.1,392.7c-209.9,56.1-411.4,37.4-602.6-58.6c-12.7-6-28-8.5-34-24.6
				c45-6.8,88.4-6.8,130.9-21.2c46.7-16.1,54.4-39.9,22.1-74.8c-108.8-110.5-249.9-155.5-394.4-68
				c-77.3,47.6-141.1,109.6-189.5,184.4c-37.4,57.8-46.7,119-24.6,184.4c-29.7,6-43.3-12.7-58.6-22.9
				c-226.9-143.6-375.7-345.1-495.5-569.5c-102.8-192.9-197.2-390.1-279.6-591.6c-178.5-442.8-492.1-787.9-906.9-1057.4
				c-18.7-11.9-35.7-24.6-60.3-41.6c321.3-102,636.6-203.1,961.3-305.1c-51-30.6-96-56.1-146.2-86.7
				c139.4-95.2,289-158.1,452.2-197.2c221-51.8,442.8-49.3,666.4-14.4c32.3,4.2,62,4.2,93.5-2.5c226.9-47.6,456.4-54.4,688.5-27.2
				c51,5.9,101.1,5.9,153.8,1.7c212.5-20.4,420.7-8.5,624.7,57.8c148.7,49.3,266.9,133.4,362.1,249.9
				c41.6,53.5,79,109.6,121.5,162.3c31.4,37.4,39.1,64.6-24.6,83.3c238.8,99.4,379.1,284.7,509.1,476c18.7,27.2,13.6,43.3-9.3,62
				c-31.4,24.6-58.6,53.5-88.4,79c-60.3,53.5-121.5,106.2-152.1,181c-9.3,22.9-26.3,44.2-45,60.3c-110.5,81.6-183.6,195.5-283,286.4
				c-114.7,105.4-251.6,174.2-418.2,212.5c26.3-35.7,48.4-64.6,68-95.2c52.7-79,90.1-164,101.1-257.5c3.4-27.2-4.2-43.3-31.4-54.4
				c-85.8-39.9-169.1-85-256.7-119c-290.7-116.4-610.3,68-725.9,267.7c-7.6,14.4-11,22.9,9.3,30.6
				c97.7,39.1,127.5,118.1,142.8,205.7c13.6,79,7.6,161.5,29.7,240.5c18.7,68,46.7,130.9,97.7,184.4c26.3,27.2,51,33.1,88.4,21.2
				c198.9-58.6,374-158.1,538.9-274.5C5327.7,4394.4,5340.5,4385.9,5352.4,4377.4"/>
		</g>
	</g>
	<g>
		<g>
			<defs>
				<rect id="SVGID_29_" x="-2419.8" y="-1535" width="12304.2" height="8804"/>
			</defs>
			<clipPath id="SVGID_30_">
				<use xlink:href="#SVGID_29_"  style="overflow:visible;"/>
			</clipPath>
			<path class="st14" d="M5352.4,4377.4c-39.1,137.7-99.4,264.3-192.9,384.2c67.1-8.5,124.1-16.1,181.9-22.9
				c1.7,4.2,3.4,8.5,1.7,10.2c-192.9,170.8-399.5,322.1-662.1,392.7c-209.9,56.1-411.4,37.4-602.6-58.6c-12.7-6-28-8.5-34-24.6
				c45-6.8,88.4-6.8,130.9-21.2c46.7-16.1,54.4-39.9,22.1-74.8c-108.8-110.5-249.9-155.5-394.4-68
				c-77.3,47.6-141.1,109.6-189.5,184.4c-37.4,57.8-46.7,119-24.6,184.4c-29.7,6-43.3-12.7-58.6-22.9
				c-226.9-143.6-375.7-345.1-495.5-569.5c-102.8-192.9-197.2-390.1-279.6-591.6c-178.5-442.8-492.1-787.9-906.9-1057.4
				c-18.7-11.9-35.7-24.6-60.3-41.6c321.3-102,636.6-203.1,961.3-305.1c-51-30.6-96-56.1-146.2-86.7
				c139.4-95.2,289-158.1,452.2-197.2c221-51.8,442.8-49.3,666.4-14.4c32.3,4.2,62,4.2,93.5-2.5c226.9-47.6,456.4-54.4,688.5-27.2
				c51,5.9,101.1,5.9,153.8,1.7c212.5-20.4,420.7-8.5,624.7,57.8c148.7,49.3,266.9,133.4,362.1,249.9
				c41.6,53.5,79,109.6,121.5,162.3c31.4,37.4,39.1,64.6-24.6,83.3c238.8,99.4,379.1,284.7,509.1,476c18.7,27.2,13.6,43.3-9.3,62
				c-31.4,24.6-58.6,53.5-88.4,79c-60.3,53.5-121.5,106.2-152.1,181c-9.3,21.2-26.3,44.2-45,60.3c-110.5,81.6-183.6,195.5-283,286.4
				c-114.7,105.4-251.6,174.2-418.2,212.5c26.3-35.7,48.4-64.6,68-95.2c52.7-79,90.1-164,101.1-257.5c3.4-27.2-4.2-43.3-31.4-54.4
				c-85.8-39.9-169.1-85-256.7-119c-290.7-116.4-610.3,68-725.9,267.7c-7.6,14.4-11,22.9,9.3,30.6
				c97.7,39.1,127.5,118.1,142.8,205.7c13.6,79,7.6,161.5,29.7,240.5c18.7,68,46.7,130.9,97.7,184.4c26.3,27.2,51,33.1,88.4,21.2
				c198.9-58.6,374-158.1,538.9-274.5C5327.7,4394.4,5340.5,4385.9,5352.4,4377.4z"/>
		</g>
	</g>
	<g>
		<g>
			<defs>
				<rect id="SVGID_31_" x="-2419.8" y="-1535" width="12304.2" height="8804"/>
			</defs>
			<clipPath id="SVGID_32_">
				<use xlink:href="#SVGID_31_"  style="overflow:visible;"/>
			</clipPath>
			<path class="st15" d="M2974.1,2732.7c-3.4-4.2-5.9-6.8-9.3-11.9c-17-21.2-32.3-43.3-51-62.9c-26.3-28.9-13.6-35.7,20.4-41.6
				c192.9-24.6,375.7,0,544,95.2c77.3,43.3,158.1,81.6,248.2,99.4c80.7,16.1,158.1,12.7,230.3-30.6c56.1-34.8,67.1-72.2,35.7-126.6
				c-40.8-70.5-108.8-112.2-183.6-143.6c-146.2-62-301.7-73.1-458.1-68.8c-202.3,6.8-392.7,54.4-570.3,145.3
				c-31.4,16.1-35.7,24.6-1.7,43.3c60.3,31.4,118.1,66.3,176.8,99.4c4.2,2.5,7.6,5.9,12.7,6.8c3.4,2.5,7.6,5.9,11,10.2h-1.7
				C2977.5,2742.9,2975.8,2738.7,2974.1,2732.7 M5369.4,3309.8c-7.6,0-18.7,1.7-24.6-1.7c-203.1-97.7-420.7-107.9-641.7-95.2
				c-13.6,1.7-32.3-6.8-39.1,16.1c86.7,8.5,174.2,14.4,257.5,34.8c198.9,45.9,374,128.3,503.2,282.2c-3.4,2.5-4.2,4.2-7.6,6.8
				c-17-5.9-32.3-12.7-49.3-18.7c-172.5-62-349.3-99.4-536.3-64.6c-166.6,30.6-300,112.2-403.7,240.5c32.3,6.8,54.4-17,88.4-8.5
				c-63.7,56.1-119.8,116.4-150.4,191.2c146.2-124.9,281.3-266,506.6-261.8c-51-33.1-105.4-24.6-158.1-27.2
				c43.3-20.4,86.7-24.6,133.4-21.2c158.1,8.5,298.3,68.8,436.9,133.4c58.6,27.2,114.7,60.3,176.8,79
				c197.2,62,382.5,10.2,480.2-133.4c22.1-31.4,29.7-62,13.6-97.7c-24.6-56.1-46.7-112.2-71.4-170.8c9.3,2.5,15.3,2.5,18.7,5.9
				c20.4,17,40.8,35.7,60.3,54.4c4.2,1.7,7.6,2.5,12.7,5.9c0-4.2-1.7-8.5-1.7-12.7c-54.4-116.4-158.1-189.5-270.3-255.8
				c-29.7-17-60.3-33.1-90.1-50.1c152.1,20.4,293.2,60.3,420.7,137.7c4.2,2.5,5.9,12.7,13.6,6.8c6-4.2,0-10.2-5.9-12.7
				c-102.8-129.2-232.9-226.9-402-273.7c-41.6-11.9-86.7-10.2-131.7-5.9c-103.7,8.5-200.6,37.4-294.9,77.3
				c-40.8,17-85.8,30.6-122.4,62C5192.6,3180.6,5297.1,3224.8,5369.4,3309.8L5369.4,3309.8z M2050.2,3033.6
				c18.7,11.9,26.3,18.7,35.7,22.9c226.9,128.3,422.4,290.7,581.4,487.9c208.2,259.2,469.2,450.5,798.1,562.7
				c31.4,10.2,62,22.9,94.3,34.8c0-18.7-11-21.2-18.7-27.2c-181.9-135.1-332.3-296.6-458.1-477.7c-63.7-90.9-112.2-187-129.2-294.9
				c-28-172.5,67.1-289,255-309.4c39.1-4.2,79-6.8,133.4-12.7c-153.8-89.2-300-164-470.9-172.5
				C2581.5,2835.6,2320.5,2933.3,2050.2,3033.6 M4413.1,2441.2c-175.9-37.4-347.6-22.9-521.9,0c86.7,47.6,157.2,109.6,221,178.5
				c18.7,20.4,39.1,6.8,58.6,0c232.9-74.8,469.2-107.9,716.5-93.5c215.9,12.7,394.4,86.7,540.6,230.3
				c46.7,45.9,103.7,72.2,167.4,90.9c15.3,4.2,34,12.7,45,0c12.7-14.4-4.2-27.2-12.8-39.1c-127.5-188.7-309.4-311.1-545.7-357
				c-264.3-51.8-518.5-8.5-770.9,62.9c-20.4,5.9-40.8,18.7-71.4,10.2C4300.9,2495.6,4357,2468.4,4413.1,2441.2 M4773.5,3064.2
				c-7.6-2.5-15.3-6.8-22.9-10.2c-158.1-49.3-320.4-76.5-486.2-76.5c-122.4,0-245.6,22.9-352.7,81.6c-71.4,39.9-71.4,102-3.4,147
				c15.3,10.2,34,18.7,52.7,22.9c118.1,34.8,238.8,33.1,363.8,27.2c-4.2-6.8-5.9-11.9-7.6-11.9c-34-11.9-79-16.1-76.5-62
				c1.7-41.6,40.8-58.6,76.5-74.8c62-25.5,130.9-31.4,197.2-39.9C4601,3060,4686,3072.7,4773.5,3064.2 M5072.7,4873.8
				c-296.6,34.8-525.3-68.8-707.2-278.8c45,120.7,119.8,217.6,238,282.2c51,27.2,103.7,51.8,159.8,68c39.1,11.9,34,24.6,7.6,44.2
				c-32.3,27.2-69.7,50.1-103.7,76.5C4822.8,5040.4,4956.3,4977.5,5072.7,4873.8 M5344.7,2900.2c0-2.5,0-5.9,0-8.5
				c-31.4,0-62,0-93.5,0c-24.6,0-45-4.2-63.7-18.7c-103.7-76.5-223.5-119-354.4-137.7c-99.4-14.4-200.6-21.2-300,0
				c41.6,6.8,85.8,8.5,127.5,14.4c175.9,20.4,345.1,50.1,470.9,180.2c22.1,22.9,51,25.5,84.1,14.4
				C5258,2927.4,5301.4,2912.9,5344.7,2900.2 M5982.2,3475.6l1.7-2.5h-3.4L5982.2,3475.6z"/>
		</g>
	</g>
	<g>
		<g>
			<defs>
				<rect id="SVGID_33_" x="-2419.8" y="-1535" width="12304.2" height="8804"/>
			</defs>
			<clipPath id="SVGID_34_">
				<use xlink:href="#SVGID_33_"  style="overflow:visible;"/>
			</clipPath>
			<path class="st16" d="M4633.3,2793.9c15.3,16.1,20.4,21.2,24.6,25.5c58.6,44.2,118.1,89.2,178.5,130.9
				c69.7,50.1,157.2,51.8,238.8,1.7C4950.3,2852.6,4809.2,2803.3,4633.3,2793.9"/>
		</g>
	</g>
	<g>
		<g>
			<defs>
				<rect id="SVGID_35_" x="-2419.8" y="-1535" width="12304.2" height="8804"/>
			</defs>
			<clipPath id="SVGID_36_">
				<use xlink:href="#SVGID_35_"  style="overflow:visible;"/>
			</clipPath>
			<path class="st17" d="M5201.9,4556.8c-119.8,81.6-249.9,142.8-401.2,188.7c77.3,28.9,144.5,35.7,214.2,39.1
				c20.4,1.7,32.3-5.9,45-20.4C5121.2,4703.8,5167.9,4635,5201.9,4556.8"/>
		</g>
	</g>
	<g>
		<g>
			<defs>
				<polygon id="SVGID_37_" points="-3531.8,-2166.6 9884.4,-1535 9884.4,7269 -2419.8,7269 				"/>
			</defs>
			<clipPath id="SVGID_38_">
				<use xlink:href="#SVGID_37_"  style="overflow:visible;"/>
			</clipPath>
			<path class="st18" d="M5396.6,4150.5c88.4-20.4,255-152.1,302.6-238.8c-69.7,14.4-138.5,12.7-206.5,2.5
				c-22.9-2.5-28,6.8-29.7,24.6C5453.5,4010.2,5430.6,4079.9,5396.6,4150.5"/>
		</g>
	</g>
</g>
</svg>
