<?xml version="1.0" encoding="utf-8"?>
<!-- Generator: Adobe Illustrator 22.1.0, SVG Export Plug-In . SVG Version: 6.00 Build 0)  -->
<svg version="1.1" id="Layer_1" xmlns="http://www.w3.org/2000/svg" xmlns:xlink="http://www.w3.org/1999/xlink" x="0px" y="0px"
	 viewBox="0 0 1599.7 1236.1" style="enable-background:new 0 0 1599.7 1236.1;" xml:space="preserve">
<style type="text/css">
	.st0{clip-path:url(#SVGID_2_);fill:none;stroke:#000000;stroke-width:3;stroke-miterlimit:10;}
	.st1{clip-path:url(#SVGID_4_);fill:#FCB614;}
	.st2{clip-path:url(#SVGID_6_);fill:none;stroke:#000000;stroke-width:2;stroke-miterlimit:10;}
	.st3{clip-path:url(#SVGID_8_);fill:#FCB614;}
	.st4{clip-path:url(#SVGID_10_);fill:none;stroke:#000000;stroke-width:2;stroke-miterlimit:10;}
	.st5{clip-path:url(#SVGID_12_);fill:#FCB614;}
	.st6{clip-path:url(#SVGID_14_);fill:none;stroke:#000000;stroke-width:2;stroke-miterlimit:10;}
	.st7{clip-path:url(#SVGID_16_);fill:#FCB614;}
	.st8{clip-path:url(#SVGID_18_);fill:none;stroke:#000000;stroke-width:2;stroke-miterlimit:10;}
	.st9{clip-path:url(#SVGID_20_);fill:#656565;}
	.st10{clip-path:url(#SVGID_22_);fill:#656565;}
	.st11{clip-path:url(#SVGID_24_);fill:#656565;}
	.st12{clip-path:url(#SVGID_26_);fill:#030202;}
	.st13{clip-path:url(#SVGID_28_);fill:#030202;}
	.st14{clip-path:url(#SVGID_30_);fill:none;stroke:#FBB116;stroke-miterlimit:10;}
	.st15{clip-path:url(#SVGID_32_);fill:#282828;}
	.st16{clip-path:url(#SVGID_34_);fill:#FFFFFF;}
	.st17{clip-path:url(#SVGID_36_);fill:#FFFFFF;}
	.st18{clip-path:url(#SVGID_38_);fill:#FFFFFF;}
</style>
<g>
	<g>
		<g>
			<defs>
				<rect id="SVGID_1_" x="-599.5" y="-364.6" width="2746.7" height="1965.3"/>
			</defs>
			<clipPath id="SVGID_2_">
				<use xlink:href="#SVGID_1_"  style="overflow:visible;"/>
			</clipPath>
			<path class="st0" d="M1173.6,47.1l-150.5,363.2l-6.6,0.6l106.4-364.5l-186.5-2.8l-326.5-4.7l0,0l-144.2-2.3
				c0,0-11.8,27.7-12.9,29.8l0.4-30.2L230,32.9l41.6,393.3l-46.3,230.9L434,632.7l44.4-203.2l71.7-140L529,378.8
				c-13.5,58.1-21.4,95.4-23.5,114c-2.8,23.7,0.9,45.9,11.8,66.2c11.8,22.2,32.3,38.5,61.5,48.8c17.1,6.1,36.4,8.9,57.5,8.9
				c9.7,0,20.1-0.6,30.9-1.9c28.8-3.6,55.4-11.2,79.1-22.8c16.7-8.3,31.9-18.6,45.7-30.5l-8.3,30.2l172.1-20.3l320.5-37.6
				l102.6-483.6L1173.6,47.1z"/>
		</g>
	</g>
	<g>
		<g>
			<defs>
				<rect id="SVGID_3_" x="-599.5" y="-364.6" width="2746.7" height="1965.3"/>
			</defs>
			<clipPath id="SVGID_4_">
				<use xlink:href="#SVGID_3_"  style="overflow:visible;"/>
			</clipPath>
			<path class="st1" d="M619.2,67.6L442.7,411.8l-39.8,182.7l-130,15.4l37.8-188.2L272.3,62.5l142.1,2.3
				c-1.7,111.8-5.1,184.6-10.4,221.6c20.5-58.8,49.3-132.1,87.1-220.3L619.2,67.6z"/>
		</g>
	</g>
	<g>
		<g>
			<defs>
				<rect id="SVGID_5_" x="-599.5" y="-364.6" width="2746.7" height="1965.3"/>
			</defs>
			<clipPath id="SVGID_6_">
				<use xlink:href="#SVGID_5_"  style="overflow:visible;"/>
			</clipPath>
			<path class="st2" d="M619.2,67.6L442.7,411.8l-39.8,182.7l-130,15.4l37.8-188.2L272.3,62.5l142.1,2.3
				c-1.7,111.8-5.1,184.6-10.4,221.6c20.5-58.8,49.3-132.1,87.1-220.3L619.2,67.6z"/>
		</g>
	</g>
	<g>
		<g>
			<defs>
				<rect id="SVGID_7_" x="-599.5" y="-364.6" width="2746.7" height="1965.3"/>
			</defs>
			<clipPath id="SVGID_8_">
				<use xlink:href="#SVGID_7_"  style="overflow:visible;"/>
			</clipPath>
			<path class="st3" d="M922.2,72.2l-88.4,325.2c-9.7,34.9-17.3,59.8-23.1,73.8c-5.9,14-15.9,29.2-30.5,45
				c-14.6,15.7-31.5,28.7-51,38.1c-19.7,9.7-41.6,16.1-66.2,19c-27.3,3.2-51,1.5-70.4-5.1c-19.4-6.8-33.2-17.3-40.6-31.1
				c-7.6-14-10.4-29.8-8.3-46.9s9.7-53.7,23-110.4l73.2-312.1l128.6,1.9l-95.4,378.3c-5.1,20.9-7.6,34-6.6,39.5
				c0.8,5.5,4.6,8,11,7.4c7.6-0.6,13.1-4.6,17.1-11c3.8-6.5,8.7-21.4,15-45.3L804,69.7L922.2,72.2z"/>
		</g>
	</g>
	<g>
		<g>
			<defs>
				<rect id="SVGID_9_" x="-599.5" y="-364.6" width="2746.7" height="1965.3"/>
			</defs>
			<clipPath id="SVGID_10_">
				<use xlink:href="#SVGID_9_"  style="overflow:visible;"/>
			</clipPath>
			<path class="st4" d="M922.2,72.2l-88.4,325.2c-9.7,34.9-17.3,59.8-23.1,73.8c-5.9,14-15.9,29.2-30.5,45
				c-14.6,15.7-31.5,28.7-51,38.1c-19.7,9.7-41.6,16.1-66.2,19c-27.3,3.2-51,1.5-70.4-5.1c-19.4-6.8-33.2-17.3-40.6-31.1
				c-7.6-14-10.4-29.8-8.3-46.9s9.7-53.7,23-110.4l73.2-312.1l128.6,1.9l-95.4,378.3c-5.1,20.9-7.6,34-6.6,39.5
				c0.8,5.5,4.6,8,11,7.4c7.6-0.6,13.1-4.6,17.1-11c3.8-6.5,8.7-21.4,15-45.3L804,69.7L922.2,72.2z"/>
		</g>
	</g>
	<g>
		<g>
			<defs>
				<rect id="SVGID_11_" x="-599.5" y="-364.6" width="2746.7" height="1965.3"/>
			</defs>
			<clipPath id="SVGID_12_">
				<use xlink:href="#SVGID_11_"  style="overflow:visible;"/>
			</clipPath>
			<polygon class="st5" points="1073.8,74.5 965.6,444.3 1026.9,438.6 1001.3,524.3 835.3,543.5 966,72.8 			"/>
		</g>
	</g>
	<g>
		<g>
			<defs>
				<rect id="SVGID_13_" x="-599.5" y="-364.6" width="2746.7" height="1965.3"/>
			</defs>
			<clipPath id="SVGID_14_">
				<use xlink:href="#SVGID_13_"  style="overflow:visible;"/>
			</clipPath>
			<polygon class="st6" points="1073.8,74.5 965.6,444.3 1026.9,438.6 1001.3,524.3 835.3,543.5 966,72.8 			"/>
		</g>
	</g>
	<g>
		<g>
			<defs>
				<rect id="SVGID_15_" x="-599.5" y="-364.6" width="2746.7" height="1965.3"/>
			</defs>
			<clipPath id="SVGID_16_">
				<use xlink:href="#SVGID_15_"  style="overflow:visible;"/>
			</clipPath>
			<path class="st7" d="M1333.5,77.9l-88.4,417.4l-89.2,10.6l18.8-72.9l-32.6,3.2l-29.2,74.8l-98.1,11.6L1200,76.4L1333.5,77.9z
				 M1195.8,359.3c10.8-47.8,25.2-108.2,44-181.4c-36.1,84.8-61.5,145.7-75.5,183.7L1195.8,359.3z"/>
		</g>
	</g>
	<g>
		<g>
			<defs>
				<rect id="SVGID_17_" x="-599.5" y="-364.6" width="2746.7" height="1965.3"/>
			</defs>
			<clipPath id="SVGID_18_">
				<use xlink:href="#SVGID_17_"  style="overflow:visible;"/>
			</clipPath>
			<path class="st8" d="M1333.5,77.9l-88.4,417.4l-89.2,10.6l18.8-72.9l-32.6,3.2l-29.2,74.8l-98.1,11.6L1200,76.4L1333.5,77.9z
				 M1195.8,359.3c10.8-47.8,25.2-108.2,44-181.4c-36.1,84.8-61.5,145.7-75.5,183.7L1195.8,359.3z"/>
		</g>
	</g>
	<g>
		<g>
			<defs>
				<rect id="SVGID_19_" x="-599.5" y="-364.6" width="2746.7" height="1965.3"/>
			</defs>
			<clipPath id="SVGID_20_">
				<use xlink:href="#SVGID_19_"  style="overflow:visible;"/>
			</clipPath>
			<polyline class="st9" points="1437,925.6 1437.1,925.4 1437,925.6 			"/>
		</g>
	</g>
	<g>
		<g>
			<defs>
				<rect id="SVGID_21_" x="-599.5" y="-364.6" width="2746.7" height="1965.3"/>
			</defs>
			<clipPath id="SVGID_22_">
				<use xlink:href="#SVGID_21_"  style="overflow:visible;"/>
			</clipPath>
			<path class="st10" d="M1435.4,920.9c0.4,1.5,0.9,2.8,1.3,4.6l0.4-0.4c-0.9-0.9-2.5-1.9-3.4-2.8
				C1434.5,922.2,1435.2,921.5,1435.4,920.9"/>
		</g>
	</g>
	<g>
		<g>
			<defs>
				<rect id="SVGID_23_" x="-599.5" y="-364.6" width="2746.7" height="1965.3"/>
			</defs>
			<clipPath id="SVGID_24_">
				<use xlink:href="#SVGID_23_"  style="overflow:visible;"/>
			</clipPath>
			<path class="st11" d="M1433.7,922.4c-1.3-0.6-2.5-1.5-3.8-2.3c0.9-0.9,2.1-1.5,3-2.7c0.9,0.9,1.7,2.3,2.8,3.2
				C1435.2,921.5,1434.5,922.2,1433.7,922.4"/>
		</g>
	</g>
	<g>
		<g>
			<defs>
				<rect id="SVGID_25_" x="-599.5" y="-364.6" width="2746.7" height="1965.3"/>
			</defs>
			<clipPath id="SVGID_26_">
				<use xlink:href="#SVGID_25_"  style="overflow:visible;"/>
			</clipPath>
			<path class="st12" d="M1357.1,717.9c-27.1-39.5-55.2-76.7-99.6-102.5c0-11.6-7.6-20.5-10.4-24.1c-4.6-5.5-8.7-11.2-13.1-17.6
				c-4.2-6.1-8.7-12.1-13.9-18.2c-24.3-30.2-55.4-51.6-92.2-63.9c-33.2-11-68.3-16.3-107.2-16.3c-13.9,0-28.5,0.6-43.3,2.3
				c-4.9,0.4-9.3,0.6-13.9,0.6c-4.9,0-9.7-0.4-14.6-0.9c-20.9-2.7-41.6-3.8-62-3.8c-33.6,0-67.4,3.6-100.2,10.2
				c-2.5,0.6-4.9,0.6-7,0.6c-1.3,0-2.8,0-4.6-0.4c-26-4.2-50.3-6.1-73.8-6.1c-29.4,0-57.9,3.2-85,9.3c-40.6,9.3-76.7,25-109.7,47.8
				l-29.2,19.9l19.4,11.6l-210.4,66.8l38.1,26.4c1.7,1.3,3.4,2.7,5.1,3.6c3.4,2.3,6.3,4.2,9.1,6.1c93.4,60.7,156.7,134.5,193.2,225
				c17.6,43.6,38.1,87.3,63.4,134.1c33.2,62.2,71.2,105.3,118.6,135.9c0.4,0.4,0.8,0.4,0.8,0.6c3.4,2.7,11.8,8.9,24.7,8.9
				c2.5,0,5.1-0.4,7.6-0.6l26.8-5.5l-8.3-24.5c-2.8-8-1.7-14.8,3-22.2c9.1-13.9,20.5-25,34.7-33.8c7.2-4.6,13.9-6.5,20.9-6.5
				c3.4,0,7.2,0.6,10.4,1.5l-26,3.8l12.1,26.9c5.1,11.2,15.2,15.4,19.2,17.1h0.4c30.5,15.2,62.4,22.8,94.7,22.4
				c19.2,0,38.9-2.7,58.3-8c67.5-18.2,117.8-57.5,158.1-93.2c3.4-2.8,10.4-11.2,6.6-24.1l-4.9-20.5l-12.5,1.5
				c8-16.1,14.6-32.8,19.4-50.7l-23.9-14.4c34.7-10.2,63.4-26.4,88.4-49.1c10.1-9.3,19.2-19.4,27.7-28.8
				c11-12.5,21.4-24.1,33.6-33.4c7.6-5.7,13.9-13.9,17.6-23.1c4.9-11.6,15.2-20.9,27.3-31.5l0.8-0.6c2.5-2.3,4.9-4.6,7.2-6.8
				c4.2-3.6,8-7,11.8-10.2C1365,749.4,1367.5,733.1,1357.1,717.9 M560.9,749.4c-29.2-36.2-64.1-68.1-104.4-94.7
				c39.3-13.5,77.6-24.1,117.6-24.1c3.4,0,7.2,0,10.8,0.4c11.8,0.6,23.1,2.8,34.3,6.5c-9.3,4.7-17.6,11.2-23.9,19.4
				c-14.2,17.1-19.4,39.5-15.2,64.9c4.2,24.7,14.6,49.5,32.6,74.8c3.4,4.7,7,9.9,10.8,14.8C600.4,793.8,579.9,773.1,560.9,749.4
				 M796.4,578.6c-4.2,0-8.7-0.6-13.9-1.5c-17.6-3.6-34-12-47.4-19.4c-12.9-7-26.4-12.9-40.2-17.3c4.6,0,8.7-0.4,12.9-0.4
				c31.5,0,56.2,4.2,78,13.5c15,6.1,23.5,12.5,28.5,20.5C808.9,577.3,803.2,578.6,796.4,578.6 M867.7,676.1
				c-11-0.6-20.5-2.3-29.2-4.7c10.8-5.1,23-8.3,36.1-9.9C871.5,665.3,869.3,670.1,867.7,676.1 M1107.4,893.2
				c-2.8,4.2-5.5,8-9.1,12.9c-1.7,2.7-3.4,4.7-5.5,7.8l-36.1,50.1l33-7.8c-30.5,19.4-58.3,32.8-86.7,41.4
				c-5.9-7-10.1-15.7-13.5-28.7c-2.5-8-2.8-17.1-3.4-26.6c-0.8-8-0.9-16.3-2.8-24.7c-1.7-10.2-6.3-34.3-26.8-51.4
				c19.2-22.2,52.4-42.1,87.7-42.1c11.4,0,22.2,2.3,32.6,6.1c11.8,4.7,23,10.2,35.1,16.1c4.2,2.3,8.7,4.2,13.1,6.5
				C1122.7,866.3,1116.9,879.5,1107.4,893.2 M1134.9,672c15.2-5.5,29.2-8.3,42.7-9.3c4.2-0.4,7.6-0.6,10.4-0.6c3.8,0,7,0.4,9.3,0.9
				l-10.4,26.9l-30.9-1.5C1149.1,682,1142.1,676.5,1134.9,672 M1250.6,776.3c-11,16.1-28.8,24.7-50.3,24.7c-9.1,0-18.4-1.5-28.1-4.6
				c-4.9-1.5-9.7-3.6-15-6.1l3.4,1.3l11.8-11.2l16.7-16.1l-13.1-15.7c-4.2-5.1-9.1-9.9-13.9-14.8l34,0.6l-16.7-19.5l21.4-14.4
				c1.3,0.6,2.8,1.5,3.8,2.3c8.3,4.7,15.6,9.7,22.2,14l8.3,19.9c1.7,3.8,3,7.8,4.9,11.6c3.8,8.9,7.2,17.3,11,26.4
				C1251.4,775.7,1251,776.1,1250.6,776.3"/>
		</g>
	</g>
	<g>
		<g>
			<defs>
				<rect id="SVGID_27_" x="-599.5" y="-364.6" width="2746.7" height="1965.3"/>
			</defs>
			<clipPath id="SVGID_28_">
				<use xlink:href="#SVGID_27_"  style="overflow:visible;"/>
			</clipPath>
			<path class="st13" d="M1135.5,955.2c-8.7,30.7-22.2,59-43.1,85.8c15-1.9,27.7-3.6,40.6-5.1c0.4,0.9,0.8,1.9,0.4,2.3
				c-43.1,38.1-89.2,71.9-147.8,87.7c-46.9,12.5-91.8,8.3-134.5-13.1c-2.8-1.3-6.3-1.9-7.6-5.5c10.1-1.5,19.7-1.5,29.2-4.7
				c10.4-3.6,12.1-8.9,4.9-16.7c-24.3-24.7-55.8-34.7-88-15.2c-17.3,10.6-31.5,24.5-42.3,41.2c-8.3,12.9-10.4,26.6-5.5,41.2
				c-6.6,1.3-9.7-2.8-13.1-5.1c-50.7-32.1-83.9-77-110.6-127.1c-23-43.1-44-87.1-62.4-132.1c-39.8-98.9-109.9-175.9-202.5-236
				c-4.2-2.7-8-5.5-13.5-9.3c71.7-22.8,142.1-45.3,214.6-68.1c-11.4-6.8-21.4-12.5-32.6-19.4c31.1-21.3,64.5-35.3,100.9-44
				c49.3-11.6,98.9-11,148.8-3.2c7.2,0.9,13.9,0.9,20.9-0.6c50.7-10.6,101.9-12.1,153.7-6.1c11.4,1.3,22.6,1.3,34.3,0.4
				c47.4-4.6,93.9-1.9,139.5,12.9c33.2,11,59.6,29.8,80.8,55.8c9.3,12,17.6,24.5,27.1,36.2c7,8.3,8.7,14.4-5.5,18.6
				c53.3,22.2,84.6,63.6,113.7,106.3c4.2,6.1,3,9.7-2.1,13.9c-7,5.5-13.1,12-19.7,17.6c-13.5,12-27.1,23.7-34,40.4
				c-2.1,5.1-5.9,9.9-10.1,13.5c-24.7,18.2-41,43.6-63.2,63.9c-25.6,23.5-56.2,38.9-93.4,47.4c5.9-8,10.8-14.4,15.2-21.3
				c11.8-17.6,20.1-36.6,22.6-57.5c0.8-6.1-0.9-9.7-7-12.1c-19.2-8.9-37.8-19-57.3-26.6c-64.9-26-136.2,15.2-162,59.8
				c-1.7,3.2-2.5,5.1,2.1,6.8c21.8,8.7,28.5,26.4,31.9,45.9c3,17.6,1.7,36.1,6.6,53.7c4.2,15.2,10.4,29.2,21.8,41.2
				c5.9,6.1,11.4,7.4,19.7,4.7c44.4-13.1,83.5-35.3,120.3-61.3C1130,959,1132.8,957.1,1135.5,955.2"/>
		</g>
	</g>
	<g>
		<g>
			<defs>
				<rect id="SVGID_29_" x="-599.5" y="-364.6" width="2746.7" height="1965.3"/>
			</defs>
			<clipPath id="SVGID_30_">
				<use xlink:href="#SVGID_29_"  style="overflow:visible;"/>
			</clipPath>
			<path class="st14" d="M1135.5,955.2c-8.7,30.7-22.2,59-43.1,85.8c15-1.9,27.7-3.6,40.6-5.1c0.4,0.9,0.8,1.9,0.4,2.3
				c-43.1,38.1-89.2,71.9-147.8,87.7c-46.9,12.5-91.8,8.3-134.5-13.1c-2.8-1.3-6.3-1.9-7.6-5.5c10.1-1.5,19.7-1.5,29.2-4.7
				c10.4-3.6,12.1-8.9,4.9-16.7c-24.3-24.7-55.8-34.7-88-15.2c-17.3,10.6-31.5,24.5-42.3,41.2c-8.3,12.9-10.4,26.6-5.5,41.2
				c-6.6,1.3-9.7-2.8-13.1-5.1c-50.7-32.1-83.9-77-110.6-127.1c-23-43.1-44-87.1-62.4-132.1c-39.8-98.9-109.9-175.9-202.5-236
				c-4.2-2.7-8-5.5-13.5-9.3c71.7-22.8,142.1-45.3,214.6-68.1c-11.4-6.8-21.4-12.5-32.6-19.4c31.1-21.3,64.5-35.3,100.9-44
				c49.3-11.6,98.9-11,148.8-3.2c7.2,0.9,13.9,0.9,20.9-0.6c50.7-10.6,101.9-12.1,153.7-6.1c11.4,1.3,22.6,1.3,34.3,0.4
				c47.4-4.6,93.9-1.9,139.5,12.9c33.2,11,59.6,29.8,80.8,55.8c9.3,12,17.6,24.5,27.1,36.2c7,8.3,8.7,14.4-5.5,18.6
				c53.3,22.2,84.6,63.6,113.7,106.3c4.2,6.1,3,9.7-2.1,13.9c-7,5.5-13.1,12-19.7,17.6c-13.5,12-27.1,23.7-34,40.4
				c-2.1,4.7-5.9,9.9-10.1,13.5c-24.7,18.2-41,43.6-63.2,63.9c-25.6,23.5-56.2,38.9-93.4,47.4c5.9-8,10.8-14.4,15.2-21.3
				c11.8-17.6,20.1-36.6,22.6-57.5c0.8-6.1-0.9-9.7-7-12.1c-19.2-8.9-37.8-19-57.3-26.6c-64.9-26-136.2,15.2-162,59.8
				c-1.7,3.2-2.5,5.1,2.1,6.8c21.8,8.7,28.5,26.4,31.9,45.9c3,17.6,1.7,36.1,6.6,53.7c4.2,15.2,10.4,29.2,21.8,41.2
				c5.9,6.1,11.4,7.4,19.7,4.7c44.4-13.1,83.5-35.3,120.3-61.3C1130,959,1132.8,957.1,1135.5,955.2z"/>
		</g>
	</g>
	<g>
		<g>
			<defs>
				<rect id="SVGID_31_" x="-599.5" y="-364.6" width="2746.7" height="1965.3"/>
			</defs>
			<clipPath id="SVGID_32_">
				<use xlink:href="#SVGID_31_"  style="overflow:visible;"/>
			</clipPath>
			<path class="st15" d="M604.6,588.1c-0.8-0.9-1.3-1.5-2.1-2.7c-3.8-4.7-7.2-9.7-11.4-14c-5.9-6.5-3-8,4.6-9.3
				c43.1-5.5,83.9,0,121.4,21.3c17.3,9.7,35.3,18.2,55.4,22.2c18,3.6,35.3,2.8,51.4-6.8c12.5-7.8,15-16.1,8-28.3
				c-9.1-15.7-24.3-25-41-32.1c-32.6-13.9-67.4-16.3-102.3-15.4c-45.2,1.5-87.7,12.1-127.3,32.4c-7,3.6-8,5.5-0.4,9.7
				c13.5,7,26.4,14.8,39.5,22.2c0.9,0.6,1.7,1.3,2.8,1.5c0.8,0.6,1.7,1.3,2.5,2.3h-0.4C605.3,590.4,604.9,589.4,604.6,588.1
				 M1139.3,716.9c-1.7,0-4.2,0.4-5.5-0.4c-45.3-21.8-93.9-24.1-143.3-21.3c-3,0.4-7.2-1.5-8.7,3.6c19.4,1.9,38.9,3.2,57.5,7.8
				c44.4,10.2,83.5,28.7,112.3,63c-0.8,0.6-0.9,0.9-1.7,1.5c-3.8-1.3-7.2-2.8-11-4.2c-38.5-13.9-78-22.2-119.7-14.4
				c-37.2,6.8-67,25-90.1,53.7c7.2,1.5,12.1-3.8,19.7-1.9c-14.2,12.5-26.8,26-33.6,42.7c32.6-27.9,62.8-59.4,113.1-58.4
				c-11.4-7.4-23.5-5.5-35.3-6.1c9.7-4.6,19.4-5.5,29.8-4.7c35.3,1.9,66.6,15.4,97.5,29.8c13.1,6.1,25.6,13.5,39.5,17.6
				c44,13.9,85.4,2.3,107.2-29.8c4.9-7,6.6-13.9,3-21.8c-5.5-12.5-10.4-25-15.9-38.1c2.1,0.6,3.4,0.6,4.2,1.3
				c4.6,3.8,9.1,8,13.5,12.1c0.9,0.4,1.7,0.6,2.8,1.3c0-0.9-0.4-1.9-0.4-2.8c-12.1-26-35.3-42.3-60.3-57.1
				c-6.6-3.8-13.5-7.4-20.1-11.2c34,4.6,65.5,13.5,93.9,30.7c0.9,0.6,1.3,2.8,3,1.5c1.3-0.9,0-2.3-1.3-2.8
				c-23-28.8-52-50.7-89.7-61.1c-9.3-2.7-19.4-2.3-29.4-1.3c-23.1,1.9-44.8,8.3-65.8,17.3c-9.1,3.8-19.2,6.8-27.3,13.9
				C1099.8,688.1,1123.1,698,1139.3,716.9L1139.3,716.9z M398.3,655.3c4.2,2.7,5.9,4.2,8,5.1c50.7,28.7,94.3,64.9,129.8,108.9
				c46.5,57.9,104.7,100.6,178.2,125.6c7,2.3,13.9,5.1,21.1,7.8c0-4.2-2.5-4.7-4.2-6.1c-40.6-30.2-74.2-66.2-102.3-106.6
				c-14.2-20.3-25-41.7-28.8-65.8c-6.3-38.5,15-64.5,56.9-69.1c8.7-0.9,17.6-1.5,29.8-2.8c-34.3-19.9-67-36.6-105.1-38.5
				C516.9,611,458.7,632.9,398.3,655.3 M925.8,523c-39.3-8.3-77.6-5.1-116.5,0c19.4,10.6,35.1,24.5,49.3,39.8
				c4.2,4.6,8.7,1.5,13.1,0c52-16.7,104.7-24.1,160-20.9c48.2,2.8,88,19.4,120.7,51.4c10.4,10.2,23.1,16.1,37.4,20.3
				c3.4,0.9,7.6,2.8,10.1,0c2.8-3.2-0.9-6.1-2.8-8.7c-28.5-42.1-69.1-69.4-121.8-79.7c-59-11.6-115.7-1.9-172.1,14
				c-4.6,1.3-9.1,4.2-15.9,2.3C900.7,535.2,913.3,529.1,925.8,523 M1006.2,662.1c-1.7-0.6-3.4-1.5-5.1-2.3
				c-35.3-11-71.5-17.1-108.5-17.1c-27.3,0-54.8,5.1-78.7,18.2c-15.9,8.9-15.9,22.8-0.8,32.8c3.4,2.3,7.6,4.2,11.8,5.1
				c26.4,7.8,53.3,7.4,81.2,6.1c-0.9-1.5-1.3-2.7-1.7-2.7c-7.6-2.7-17.6-3.6-17.1-13.9c0.4-9.3,9.1-13.1,17.1-16.7
				c13.9-5.7,29.2-7,44-8.9C967.7,661.1,986.7,664,1006.2,662.1 M1073,1066c-66.2,7.8-117.3-15.4-157.9-62.2
				c10.1,26.9,26.8,48.6,53.1,63c11.4,6.1,23.1,11.6,35.7,15.2c8.7,2.7,7.6,5.5,1.7,9.9c-7.2,6.1-15.6,11.2-23.1,17.1
				C1017.2,1103.2,1047,1089.2,1073,1066 M1133.7,625.5c0-0.6,0-1.3,0-1.9c-7,0-13.9,0-20.9,0c-5.5,0-10.1-0.9-14.2-4.2
				c-23.1-17.1-49.9-26.6-79.1-30.7c-22.2-3.2-44.8-4.7-67,0c9.3,1.5,19.2,1.9,28.5,3.2c39.3,4.6,77,11.2,105.1,40.2
				c4.9,5.1,11.4,5.7,18.8,3.2C1114.4,631.5,1124.1,628.3,1133.7,625.5 M1276.1,753.9l0.4-0.6h-0.8L1276.1,753.9z"/>
		</g>
	</g>
	<g>
		<g>
			<defs>
				<rect id="SVGID_33_" x="-599.5" y="-364.6" width="2746.7" height="1965.3"/>
			</defs>
			<clipPath id="SVGID_34_">
				<use xlink:href="#SVGID_33_"  style="overflow:visible;"/>
			</clipPath>
			<path class="st16" d="M974.9,601.8c3.4,3.6,4.6,4.7,5.5,5.7c13.1,9.9,26.4,19.9,39.8,29.2c15.6,11.2,35.1,11.6,53.3,0.4
				C1045.7,614.8,1014.2,603.8,974.9,601.8"/>
		</g>
	</g>
	<g>
		<g>
			<defs>
				<rect id="SVGID_35_" x="-599.5" y="-364.6" width="2746.7" height="1965.3"/>
			</defs>
			<clipPath id="SVGID_36_">
				<use xlink:href="#SVGID_35_"  style="overflow:visible;"/>
			</clipPath>
			<path class="st17" d="M1101.9,995.3c-26.8,18.2-55.8,31.9-89.6,42.1c17.3,6.5,32.3,8,47.8,8.7c4.6,0.4,7.2-1.3,10.1-4.6
				C1083.8,1028.1,1094.3,1012.7,1101.9,995.3"/>
		</g>
	</g>
	<g>
		<g>
			<defs>
				<polygon id="SVGID_37_" points="-847.8,-505.6 2147.2,-364.6 2147.2,1600.7 -599.5,1600.7 				"/>
			</defs>
			<clipPath id="SVGID_38_">
				<use xlink:href="#SVGID_37_"  style="overflow:visible;"/>
			</clipPath>
			<path class="st18" d="M1145.3,904.6c19.7-4.6,56.9-34,67.5-53.3c-15.6,3.2-30.9,2.8-46.1,0.6c-5.1-0.6-6.3,1.5-6.6,5.5
				C1158,873.3,1152.9,888.8,1145.3,904.6"/>
		</g>
	</g>
</g>
</svg>
