<?xml version="1.0" encoding="utf-8"?>
<!-- Generator: Adobe Illustrator 22.1.0, SVG Export Plug-In . SVG Version: 6.00 Build 0)  -->
<svg version="1.1" id="Layer_1" xmlns="http://www.w3.org/2000/svg" xmlns:xlink="http://www.w3.org/1999/xlink" x="0px" y="0px"
	 viewBox="0 0 792 612" style="enable-background:new 0 0 792 612;" xml:space="preserve">
<style type="text/css">
	.st0{clip-path:url(#SVGID_2_);fill:none;stroke:#000000;stroke-width:3;stroke-miterlimit:10;}
	.st1{clip-path:url(#SVGID_4_);fill:#FCB614;}
	.st2{clip-path:url(#SVGID_6_);fill:none;stroke:#000000;stroke-width:2;stroke-miterlimit:10;}
	.st3{clip-path:url(#SVGID_8_);fill:#FCB614;}
	.st4{clip-path:url(#SVGID_10_);fill:none;stroke:#000000;stroke-width:2;stroke-miterlimit:10;}
	.st5{clip-path:url(#SVGID_12_);fill:#FCB614;}
	.st6{clip-path:url(#SVGID_14_);fill:none;stroke:#000000;stroke-width:2;stroke-miterlimit:10;}
	.st7{clip-path:url(#SVGID_16_);fill:#FCB614;}
	.st8{clip-path:url(#SVGID_18_);fill:none;stroke:#000000;stroke-width:2;stroke-miterlimit:10;}
	.st9{clip-path:url(#SVGID_20_);fill:#656565;}
	.st10{clip-path:url(#SVGID_22_);fill:#656565;}
	.st11{clip-path:url(#SVGID_24_);fill:#656565;}
	.st12{clip-path:url(#SVGID_26_);fill:#030202;}
	.st13{clip-path:url(#SVGID_28_);fill:#030202;}
	.st14{clip-path:url(#SVGID_30_);fill:none;stroke:#FBB116;stroke-miterlimit:10;}
	.st15{clip-path:url(#SVGID_32_);fill:#282828;}
	.st16{clip-path:url(#SVGID_34_);fill:#FFFFFF;}
	.st17{clip-path:url(#SVGID_36_);fill:#FFFFFF;}
	.st18{clip-path:url(#SVGID_38_);fill:#FFFFFF;}
</style>
<g>
	<g>
		<defs>
			<rect id="SVGID_1_" x="-356.4" y="-200.2" width="1447.6" height="1035.8"/>
		</defs>
		<clipPath id="SVGID_2_">
			<use xlink:href="#SVGID_1_"  style="overflow:visible;"/>
		</clipPath>
		<path class="st0" d="M578.1,16.8l-79.3,191.4l-3.5,0.3l56.1-192.1l-98.3-1.5L281,12.4l0,0l-76-1.2c0,0-6.2,14.6-6.8,15.7l0.2-15.9
			L80.8,9.3l21.9,207.3L78.3,338.3l110-12.9l23.4-107.1l37.8-73.8l-11.1,47.1c-7.1,30.6-11.3,50.3-12.4,60.1
			c-1.5,12.5,0.5,24.2,6.2,34.9c6.2,11.7,17,20.3,32.4,25.7c9,3.2,19.2,4.7,30.3,4.7c5.1,0,10.6-0.3,16.3-1
			c15.2-1.9,29.2-5.9,41.7-12c8.8-4.4,16.8-9.8,24.1-16.1l-4.4,15.9l90.7-10.7l168.9-19.8l54.1-254.9L578.1,16.8z"/>
	</g>
	<g>
		<defs>
			<rect id="SVGID_3_" x="-356.4" y="-200.2" width="1447.6" height="1035.8"/>
		</defs>
		<clipPath id="SVGID_4_">
			<use xlink:href="#SVGID_3_"  style="overflow:visible;"/>
		</clipPath>
		<path class="st1" d="M285.9,27.6l-93,181.4l-21,96.3l-68.5,8.1l19.9-99.2L103.1,24.9l74.9,1.2c-0.9,58.9-2.7,97.3-5.5,116.8
			c10.8-31,26-69.6,45.9-116.1L285.9,27.6z"/>
	</g>
	<g>
		<defs>
			<rect id="SVGID_5_" x="-356.4" y="-200.2" width="1447.6" height="1035.8"/>
		</defs>
		<clipPath id="SVGID_6_">
			<use xlink:href="#SVGID_5_"  style="overflow:visible;"/>
		</clipPath>
		<path class="st2" d="M285.9,27.6l-93,181.4l-21,96.3l-68.5,8.1l19.9-99.2L103.1,24.9l74.9,1.2c-0.9,58.9-2.7,97.3-5.5,116.8
			c10.8-31,26-69.6,45.9-116.1L285.9,27.6z"/>
	</g>
	<g>
		<defs>
			<rect id="SVGID_7_" x="-356.4" y="-200.2" width="1447.6" height="1035.8"/>
		</defs>
		<clipPath id="SVGID_8_">
			<use xlink:href="#SVGID_7_"  style="overflow:visible;"/>
		</clipPath>
		<path class="st3" d="M445.6,30L399,201.4c-5.1,18.4-9.1,31.5-12.2,38.9c-3.1,7.4-8.4,15.4-16.1,23.7c-7.7,8.3-16.6,15.1-26.9,20.1
			c-10.4,5.1-21.9,8.5-34.9,10c-14.4,1.7-26.9,0.8-37.1-2.7c-10.2-3.6-17.5-9.1-21.4-16.4c-4-7.4-5.5-15.7-4.4-24.7
			c1.1-9,5.1-28.3,12.1-58.2l38.6-164.5l67.8,1L314.2,228c-2.7,11-4,17.9-3.5,20.8c0.4,2.9,2.4,4.2,5.8,3.9c4-0.3,6.9-2.4,9-5.8
			c2-3.4,4.6-11.3,7.9-23.9l49.9-194.3L445.6,30z"/>
	</g>
	<g>
		<defs>
			<rect id="SVGID_9_" x="-356.4" y="-200.2" width="1447.6" height="1035.8"/>
		</defs>
		<clipPath id="SVGID_10_">
			<use xlink:href="#SVGID_9_"  style="overflow:visible;"/>
		</clipPath>
		<path class="st4" d="M445.6,30L399,201.4c-5.1,18.4-9.1,31.5-12.2,38.9c-3.1,7.4-8.4,15.4-16.1,23.7c-7.7,8.3-16.6,15.1-26.9,20.1
			c-10.4,5.1-21.9,8.5-34.9,10c-14.4,1.7-26.9,0.8-37.1-2.7c-10.2-3.6-17.5-9.1-21.4-16.4c-4-7.4-5.5-15.7-4.4-24.7
			c1.1-9,5.1-28.3,12.1-58.2l38.6-164.5l67.8,1L314.2,228c-2.7,11-4,17.9-3.5,20.8c0.4,2.9,2.4,4.2,5.8,3.9c4-0.3,6.9-2.4,9-5.8
			c2-3.4,4.6-11.3,7.9-23.9l49.9-194.3L445.6,30z"/>
	</g>
	<g>
		<defs>
			<rect id="SVGID_11_" x="-356.4" y="-200.2" width="1447.6" height="1035.8"/>
		</defs>
		<clipPath id="SVGID_12_">
			<use xlink:href="#SVGID_11_"  style="overflow:visible;"/>
		</clipPath>
		<polygon class="st5" points="525.5,31.2 468.5,226.1 500.8,223.1 487.3,268.3 399.8,278.4 468.7,30.3 		"/>
	</g>
	<g>
		<defs>
			<rect id="SVGID_13_" x="-356.4" y="-200.2" width="1447.6" height="1035.8"/>
		</defs>
		<clipPath id="SVGID_14_">
			<use xlink:href="#SVGID_13_"  style="overflow:visible;"/>
		</clipPath>
		<polygon class="st6" points="525.5,31.2 468.5,226.1 500.8,223.1 487.3,268.3 399.8,278.4 468.7,30.3 		"/>
	</g>
	<g>
		<defs>
			<rect id="SVGID_15_" x="-356.4" y="-200.2" width="1447.6" height="1035.8"/>
		</defs>
		<clipPath id="SVGID_16_">
			<use xlink:href="#SVGID_15_"  style="overflow:visible;"/>
		</clipPath>
		<path class="st7" d="M662.4,33l-46.6,220l-47,5.6l9.9-38.4l-17.2,1.7l-15.4,39.4l-51.7,6.1L592,32.2L662.4,33z M589.8,181.3
			c5.7-25.2,13.3-57,23.2-95.6c-19,44.7-32.4,76.8-39.8,96.8L589.8,181.3z"/>
	</g>
	<g>
		<defs>
			<rect id="SVGID_17_" x="-356.4" y="-200.2" width="1447.6" height="1035.8"/>
		</defs>
		<clipPath id="SVGID_18_">
			<use xlink:href="#SVGID_17_"  style="overflow:visible;"/>
		</clipPath>
		<path class="st8" d="M662.4,33l-46.6,220l-47,5.6l9.9-38.4l-17.2,1.7l-15.4,39.4l-51.7,6.1L592,32.2L662.4,33z M589.8,181.3
			c5.7-25.2,13.3-57,23.2-95.6c-19,44.7-32.4,76.8-39.8,96.8L589.8,181.3z"/>
	</g>
	<g>
		<defs>
			<rect id="SVGID_19_" x="-356.4" y="-200.2" width="1447.6" height="1035.8"/>
		</defs>
		<clipPath id="SVGID_20_">
			<use xlink:href="#SVGID_19_"  style="overflow:visible;"/>
		</clipPath>
		<polyline class="st9" points="716.9,479.8 717,479.7 716.9,479.8 		"/>
	</g>
	<g>
		<defs>
			<rect id="SVGID_21_" x="-356.4" y="-200.2" width="1447.6" height="1035.8"/>
		</defs>
		<clipPath id="SVGID_22_">
			<use xlink:href="#SVGID_21_"  style="overflow:visible;"/>
		</clipPath>
		<path class="st10" d="M716.1,477.3c0.2,0.8,0.5,1.5,0.7,2.4l0.2-0.2c-0.5-0.5-1.3-1-1.8-1.5C715.6,478,716,477.6,716.1,477.3"/>
	</g>
	<g>
		<defs>
			<rect id="SVGID_23_" x="-356.4" y="-200.2" width="1447.6" height="1035.8"/>
		</defs>
		<clipPath id="SVGID_24_">
			<use xlink:href="#SVGID_23_"  style="overflow:visible;"/>
		</clipPath>
		<path class="st11" d="M715.2,478.1c-0.7-0.3-1.3-0.8-2-1.2c0.5-0.5,1.1-0.8,1.6-1.4c0.5,0.5,0.9,1.2,1.5,1.7
			C716,477.6,715.6,478,715.2,478.1"/>
	</g>
	<g>
		<defs>
			<rect id="SVGID_25_" x="-356.4" y="-200.2" width="1447.6" height="1035.8"/>
		</defs>
		<clipPath id="SVGID_26_">
			<use xlink:href="#SVGID_25_"  style="overflow:visible;"/>
		</clipPath>
		<path class="st12" d="M674.8,370.3c-14.3-20.8-29.1-40.4-52.5-54c0-6.1-4-10.8-5.5-12.7c-2.4-2.9-4.6-5.9-6.9-9.3
			c-2.2-3.2-4.6-6.4-7.3-9.6c-12.8-15.9-29.2-27.2-48.6-33.7c-17.5-5.8-36-8.6-56.5-8.6c-7.3,0-15,0.3-22.8,1.2
			c-2.6,0.2-4.9,0.3-7.3,0.3c-2.6,0-5.1-0.2-7.7-0.5c-11-1.4-21.9-2-32.7-2c-17.7,0-35.5,1.9-52.8,5.4c-1.3,0.3-2.6,0.3-3.7,0.3
			c-0.7,0-1.5,0-2.4-0.2c-13.7-2.2-26.5-3.2-38.9-3.2c-15.5,0-30.5,1.7-44.8,4.9c-21.4,4.9-40.4,13.2-57.8,25.2l-15.4,10.5l10.2,6.1
			l-110.9,35.2l20.1,13.9c0.9,0.7,1.8,1.4,2.7,1.9c1.8,1.2,3.3,2.2,4.8,3.2c49.2,32,82.6,70.9,101.8,118.6c9.3,23,20.1,46,33.4,70.7
			c17.5,32.8,37.5,55.5,62.5,71.6c0.2,0.2,0.4,0.2,0.4,0.3c1.8,1.4,6.2,4.7,13,4.7c1.3,0,2.7-0.2,4-0.3l14.1-2.9l-4.4-12.9
			c-1.5-4.2-0.9-7.8,1.6-11.7c4.8-7.3,10.8-13.2,18.3-17.8c3.8-2.4,7.3-3.4,11-3.4c1.8,0,3.8,0.3,5.5,0.8l-13.7,2l6.4,14.2
			c2.7,5.9,8,8.1,10.1,9h0.2c16.1,8,32.9,12,49.9,11.8c10.1,0,20.5-1.4,30.7-4.2c35.6-9.6,62.1-30.3,83.3-49.1
			c1.8-1.5,5.5-5.9,3.5-12.7l-2.6-10.8l-6.6,0.8c4.2-8.5,7.7-17.3,10.2-26.7l-12.6-7.6c18.3-5.4,33.4-13.9,46.6-25.9
			c5.3-4.9,10.1-10.2,14.6-15.2c5.8-6.6,11.3-12.7,17.7-17.6c4-3,7.3-7.3,9.3-12.2c2.6-6.1,8-11,14.4-16.6l0.4-0.3
			c1.3-1.2,2.6-2.4,3.8-3.6c2.2-1.9,4.2-3.7,6.2-5.4C679,386.9,680.3,378.3,674.8,370.3 M255.2,386.9c-15.4-19.1-33.8-35.9-55-49.9
			c20.7-7.1,40.9-12.7,62-12.7c1.8,0,3.8,0,5.7,0.2c6.2,0.3,12.2,1.5,18.1,3.4c-4.9,2.5-9.3,5.9-12.6,10.2c-7.5,9-10.2,20.8-8,34.2
			c2.2,13,7.7,26.1,17.2,39.4c1.8,2.5,3.7,5.2,5.7,7.8C276,410.3,265.2,399.4,255.2,386.9 M379.3,296.9c-2.2,0-4.6-0.3-7.3-0.8
			c-9.3-1.9-17.9-6.3-25-10.2c-6.8-3.7-13.9-6.8-21.2-9.1c2.4,0,4.6-0.2,6.8-0.2c16.6,0,29.6,2.2,41.1,7.1c7.9,3.2,12.4,6.6,15,10.8
			C385.9,296.2,382.9,296.9,379.3,296.9 M416.9,348.3c-5.8-0.3-10.8-1.2-15.4-2.5c5.7-2.7,12.1-4.4,19-5.2
			C418.9,342.6,417.7,345.1,416.9,348.3 M543.2,462.7c-1.5,2.2-2.9,4.2-4.8,6.8c-0.9,1.4-1.8,2.5-2.9,4.1l-19,26.4l17.4-4.1
			c-16.1,10.2-30.7,17.3-45.7,21.8c-3.1-3.7-5.3-8.3-7.1-15.1c-1.3-4.2-1.5-9-1.8-14c-0.4-4.2-0.5-8.6-1.5-13
			c-0.9-5.4-3.3-18.1-14.1-27.1c10.1-11.7,27.6-22.2,46.2-22.2c6,0,11.7,1.2,17.2,3.2c6.2,2.5,12.1,5.4,18.5,8.5
			c2.2,1.2,4.6,2.2,6.9,3.4C551.3,448.5,548.2,455.5,543.2,462.7 M557.7,346.1c8-2.9,15.4-4.4,22.5-4.9c2.2-0.2,4-0.3,5.5-0.3
			c2,0,3.7,0.2,4.9,0.5l-5.5,14.2l-16.3-0.8C565.2,351.4,561.5,348.5,557.7,346.1 M618.7,401.1c-5.8,8.5-15.2,13-26.5,13
			c-4.8,0-9.7-0.8-14.8-2.4c-2.6-0.8-5.1-1.9-7.9-3.2l1.8,0.7l6.2-5.9l8.8-8.5l-6.9-8.3c-2.2-2.7-4.8-5.2-7.3-7.8l17.9,0.3
			l-8.8-10.3l11.3-7.6c0.7,0.3,1.5,0.8,2,1.2c4.4,2.5,8.2,5.1,11.7,7.4l4.4,10.5c0.9,2,1.6,4.1,2.6,6.1c2,4.7,3.8,9.1,5.8,13.9
			C619.1,400.8,618.9,401,618.7,401.1"/>
	</g>
	<g>
		<defs>
			<rect id="SVGID_27_" x="-356.4" y="-200.2" width="1447.6" height="1035.8"/>
		</defs>
		<clipPath id="SVGID_28_">
			<use xlink:href="#SVGID_27_"  style="overflow:visible;"/>
		</clipPath>
		<path class="st13" d="M558,495.4c-4.6,16.2-11.7,31.1-22.7,45.2c7.9-1,14.6-1.9,21.4-2.7c0.2,0.5,0.4,1,0.2,1.2
			c-22.7,20.1-47,37.9-77.9,46.2c-24.7,6.6-48.4,4.4-70.9-6.9c-1.5-0.7-3.3-1-4-2.9c5.3-0.8,10.4-0.8,15.4-2.5
			c5.5-1.9,6.4-4.7,2.6-8.8c-12.8-13-29.4-18.3-46.4-8c-9.1,5.6-16.6,12.9-22.3,21.7c-4.4,6.8-5.5,14-2.9,21.7
			c-3.5,0.7-5.1-1.5-6.9-2.7c-26.7-16.9-44.2-40.6-58.3-67c-12.1-22.7-23.2-45.9-32.9-69.6c-21-52.1-57.9-92.7-106.7-124.4
			c-2.2-1.4-4.2-2.9-7.1-4.9c37.8-12,74.9-23.9,113.1-35.9c-6-3.6-11.3-6.6-17.2-10.2c16.4-11.2,34-18.6,53.2-23.2
			c26-6.1,52.1-5.8,78.4-1.7c3.8,0.5,7.3,0.5,11-0.3c26.7-5.6,53.7-6.4,81-3.2c6,0.7,11.9,0.7,18.1,0.2c25-2.4,49.5-1,73.5,6.8
			c17.5,5.8,31.4,15.7,42.6,29.4c4.9,6.3,9.3,12.9,14.3,19.1c3.7,4.4,4.6,7.6-2.9,9.8c28.1,11.7,44.6,33.5,59.9,56
			c2.2,3.2,1.6,5.1-1.1,7.3c-3.7,2.9-6.9,6.3-10.4,9.3c-7.1,6.3-14.3,12.5-17.9,21.3c-1.1,2.7-3.1,5.2-5.3,7.1
			c-13,9.6-21.6,23-33.3,33.7c-13.5,12.4-29.6,20.5-49.2,25c3.1-4.2,5.7-7.6,8-11.2c6.2-9.3,10.6-19.3,11.9-30.3
			c0.4-3.2-0.5-5.1-3.7-6.4c-10.1-4.7-19.9-10-30.2-14c-34.2-13.7-71.8,8-85.4,31.5c-0.9,1.7-1.3,2.7,1.1,3.6
			c11.5,4.6,15,13.9,16.8,24.2c1.6,9.3,0.9,19,3.5,28.3c2.2,8,5.5,15.4,11.5,21.7c3.1,3.2,6,3.9,10.4,2.5
			c23.4-6.9,44-18.6,63.4-32.3C555.1,497.4,556.6,496.4,558,495.4"/>
	</g>
	<g>
		<defs>
			<rect id="SVGID_29_" x="-356.4" y="-200.2" width="1447.6" height="1035.8"/>
		</defs>
		<clipPath id="SVGID_30_">
			<use xlink:href="#SVGID_29_"  style="overflow:visible;"/>
		</clipPath>
		<path class="st14" d="M558,495.4c-4.6,16.2-11.7,31.1-22.7,45.2c7.9-1,14.6-1.9,21.4-2.7c0.2,0.5,0.4,1,0.2,1.2
			c-22.7,20.1-47,37.9-77.9,46.2c-24.7,6.6-48.4,4.4-70.9-6.9c-1.5-0.7-3.3-1-4-2.9c5.3-0.8,10.4-0.8,15.4-2.5
			c5.5-1.9,6.4-4.7,2.6-8.8c-12.8-13-29.4-18.3-46.4-8c-9.1,5.6-16.6,12.9-22.3,21.7c-4.4,6.8-5.5,14-2.9,21.7
			c-3.5,0.7-5.1-1.5-6.9-2.7c-26.7-16.9-44.2-40.6-58.3-67c-12.1-22.7-23.2-45.9-32.9-69.6c-21-52.1-57.9-92.7-106.7-124.4
			c-2.2-1.4-4.2-2.9-7.1-4.9c37.8-12,74.9-23.9,113.1-35.9c-6-3.6-11.3-6.6-17.2-10.2c16.4-11.2,34-18.6,53.2-23.2
			c26-6.1,52.1-5.8,78.4-1.7c3.8,0.5,7.3,0.5,11-0.3c26.7-5.6,53.7-6.4,81-3.2c6,0.7,11.9,0.7,18.1,0.2c25-2.4,49.5-1,73.5,6.8
			c17.5,5.8,31.4,15.7,42.6,29.4c4.9,6.3,9.3,12.9,14.3,19.1c3.7,4.4,4.6,7.6-2.9,9.8c28.1,11.7,44.6,33.5,59.9,56
			c2.2,3.2,1.6,5.1-1.1,7.3c-3.7,2.9-6.9,6.3-10.4,9.3c-7.1,6.3-14.3,12.5-17.9,21.3c-1.1,2.5-3.1,5.2-5.3,7.1
			c-13,9.6-21.6,23-33.3,33.7c-13.5,12.4-29.6,20.5-49.2,25c3.1-4.2,5.7-7.6,8-11.2c6.2-9.3,10.6-19.3,11.9-30.3
			c0.4-3.2-0.5-5.1-3.7-6.4c-10.1-4.7-19.9-10-30.2-14c-34.2-13.7-71.8,8-85.4,31.5c-0.9,1.7-1.3,2.7,1.1,3.6
			c11.5,4.6,15,13.9,16.8,24.2c1.6,9.3,0.9,19,3.5,28.3c2.2,8,5.5,15.4,11.5,21.7c3.1,3.2,6,3.9,10.4,2.5
			c23.4-6.9,44-18.6,63.4-32.3C555.1,497.4,556.6,496.4,558,495.4z"/>
	</g>
	<g>
		<defs>
			<rect id="SVGID_31_" x="-356.4" y="-200.2" width="1447.6" height="1035.8"/>
		</defs>
		<clipPath id="SVGID_32_">
			<use xlink:href="#SVGID_31_"  style="overflow:visible;"/>
		</clipPath>
		<path class="st15" d="M278.2,301.9c-0.4-0.5-0.7-0.8-1.1-1.4c-2-2.5-3.8-5.1-6-7.4c-3.1-3.4-1.6-4.2,2.4-4.9
			c22.7-2.9,44.2,0,64,11.2c9.1,5.1,18.6,9.6,29.2,11.7c9.5,1.9,18.6,1.5,27.1-3.6c6.6-4.1,7.9-8.5,4.2-14.9
			c-4.8-8.3-12.8-13.2-21.6-16.9c-17.2-7.3-35.5-8.6-53.9-8.1c-23.8,0.8-46.2,6.4-67.1,17.1c-3.7,1.9-4.2,2.9-0.2,5.1
			c7.1,3.7,13.9,7.8,20.8,11.7c0.5,0.3,0.9,0.7,1.5,0.8c0.4,0.3,0.9,0.7,1.3,1.2h-0.2C278.6,303.1,278.4,302.6,278.2,301.9
			 M560,369.8c-0.9,0-2.2,0.2-2.9-0.2c-23.9-11.5-49.5-12.7-75.5-11.2c-1.6,0.2-3.8-0.8-4.6,1.9c10.2,1,20.5,1.7,30.3,4.1
			c23.4,5.4,44,15.1,59.2,33.2c-0.4,0.3-0.5,0.5-0.9,0.8c-2-0.7-3.8-1.5-5.8-2.2c-20.3-7.3-41.1-11.7-63.1-7.6
			c-19.6,3.6-35.3,13.2-47.5,28.3c3.8,0.8,6.4-2,10.4-1c-7.5,6.6-14.1,13.7-17.7,22.5c17.2-14.7,33.1-31.3,59.6-30.8
			c-6-3.9-12.4-2.9-18.6-3.2c5.1-2.4,10.2-2.9,15.7-2.5c18.6,1,35.1,8.1,51.4,15.7c6.9,3.2,13.5,7.1,20.8,9.3
			c23.2,7.3,45,1.2,56.5-15.7c2.6-3.7,3.5-7.3,1.6-11.5c-2.9-6.6-5.5-13.2-8.4-20.1c1.1,0.3,1.8,0.3,2.2,0.7c2.4,2,4.8,4.2,7.1,6.4
			c0.5,0.2,0.9,0.3,1.5,0.7c0-0.5-0.2-1-0.2-1.5c-6.4-13.7-18.6-22.3-31.8-30.1c-3.5-2-7.1-3.9-10.6-5.9
			c17.9,2.4,34.5,7.1,49.5,16.2c0.5,0.3,0.7,1.5,1.6,0.8c0.7-0.5,0-1.2-0.7-1.5c-12.1-15.2-27.4-26.7-47.3-32.2
			c-4.9-1.4-10.2-1.2-15.5-0.7c-12.2,1-23.6,4.4-34.7,9.1c-4.8,2-10.1,3.6-14.4,7.3C539.2,354.6,551.5,359.8,560,369.8L560,369.8z
			 M169.5,337.3c2.2,1.4,3.1,2.2,4.2,2.7c26.7,15.1,49.7,34.2,68.4,57.4c24.5,30.5,55.2,53,93.9,66.2c3.7,1.2,7.3,2.7,11.1,4.1
			c0-2.2-1.3-2.5-2.2-3.2c-21.4-15.9-39.1-34.9-53.9-56.2c-7.5-10.7-13.2-22-15.2-34.7c-3.3-20.3,7.9-34,30-36.4
			c4.6-0.5,9.3-0.8,15.7-1.5c-18.1-10.5-35.3-19.3-55.4-20.3C232,314,201.3,325.5,169.5,337.3 M447.5,267.6
			c-20.7-4.4-40.9-2.7-61.4,0c10.2,5.6,18.5,12.9,26,21c2.2,2.4,4.6,0.8,6.9,0c27.4-8.8,55.2-12.7,84.3-11
			c25.4,1.5,46.4,10.2,63.6,27.1c5.5,5.4,12.2,8.5,19.7,10.7c1.8,0.5,4,1.5,5.3,0c1.5-1.7-0.5-3.2-1.5-4.6
			c-15-22.2-36.4-36.6-64.2-42c-31.1-6.1-61-1-90.7,7.4c-2.4,0.7-4.8,2.2-8.4,1.2C434.3,274,440.9,270.8,447.5,267.6 M489.9,340.9
			c-0.9-0.3-1.8-0.8-2.7-1.2c-18.6-5.8-37.7-9-57.2-9c-14.4,0-28.9,2.7-41.5,9.6c-8.4,4.7-8.4,12-0.4,17.3c1.8,1.2,4,2.2,6.2,2.7
			c13.9,4.1,28.1,3.9,42.8,3.2c-0.5-0.8-0.7-1.4-0.9-1.4c-4-1.4-9.3-1.9-9-7.3c0.2-4.9,4.8-6.9,9-8.8c7.3-3,15.4-3.7,23.2-4.7
			C469.6,340.4,479.6,341.9,489.9,340.9 M525.1,553.8c-34.9,4.1-61.8-8.1-83.2-32.8c5.3,14.2,14.1,25.6,28,33.2
			c6,3.2,12.2,6.1,18.8,8c4.6,1.4,4,2.9,0.9,5.2c-3.8,3.2-8.2,5.9-12.2,9C495.7,573.4,511.4,566,525.1,553.8 M557.1,321.6
			c0-0.3,0-0.7,0-1c-3.7,0-7.3,0-11,0c-2.9,0-5.3-0.5-7.5-2.2c-12.2-9-26.3-14-41.7-16.2c-11.7-1.7-23.6-2.5-35.3,0
			c4.9,0.8,10.1,1,15,1.7c20.7,2.4,40.6,5.9,55.4,21.2c2.6,2.7,6,3,9.9,1.7C546.9,324.8,552,323.1,557.1,321.6 M632.1,389.3l0.2-0.3
			h-0.4L632.1,389.3z"/>
	</g>
	<g>
		<defs>
			<rect id="SVGID_33_" x="-356.4" y="-200.2" width="1447.6" height="1035.8"/>
		</defs>
		<clipPath id="SVGID_34_">
			<use xlink:href="#SVGID_33_"  style="overflow:visible;"/>
		</clipPath>
		<path class="st16" d="M473.4,309.1c1.8,1.9,2.4,2.5,2.9,3c6.9,5.2,13.9,10.5,21,15.4c8.2,5.9,18.5,6.1,28.1,0.2
			C510.7,316,494.1,310.2,473.4,309.1"/>
	</g>
	<g>
		<defs>
			<rect id="SVGID_35_" x="-356.4" y="-200.2" width="1447.6" height="1035.8"/>
		</defs>
		<clipPath id="SVGID_36_">
			<use xlink:href="#SVGID_35_"  style="overflow:visible;"/>
		</clipPath>
		<path class="st17" d="M540.3,516.5c-14.1,9.6-29.4,16.8-47.2,22.2c9.1,3.4,17,4.2,25.2,4.6c2.4,0.2,3.8-0.7,5.3-2.4
			C530.8,533.8,536.3,525.7,540.3,516.5"/>
	</g>
	<g>
		<defs>
			<rect id="SVGID_37_" x="-356.4" y="-200.2" width="1447.6" height="1035.8"/>
		</defs>
		<clipPath id="SVGID_38_">
			<use xlink:href="#SVGID_37_"  style="overflow:visible;"/>
		</clipPath>
		<path class="st18" d="M563.2,468.7c10.4-2.4,30-17.9,35.6-28.1c-8.2,1.7-16.3,1.5-24.3,0.3c-2.7-0.3-3.3,0.8-3.5,2.9
			C569.9,452.2,567.2,460.4,563.2,468.7"/>
	</g>
</g>
</svg>
